<svg xmlns="http://www.w3.org/2000/svg" xmlns:xlink="http://www.w3.org/1999/xlink" width="1500" zoomAndPan="magnify" viewBox="0 0 1125 1124.99995" height="1500" preserveAspectRatio="xMidYMid meet" version="1.0"><defs><clipPath id="0155272a5e"><path d="M 50.484375 445.046875 L 244 445.046875 L 244 639 L 50.484375 639 Z M 50.484375 445.046875 " clip-rule="nonzero"/></clipPath><clipPath id="3d1b19f3a3"><path d="M 123 446 L 176 446 L 176 543 L 123 543 Z M 123 446 " clip-rule="nonzero"/></clipPath><clipPath id="660b782e29"><path d="M 74.277344 445.046875 L 220.183594 445.046875 C 233.277344 445.046875 243.980469 455.769531 243.980469 468.859375 L 243.980469 614.898438 C 243.980469 627.988281 233.277344 638.703125 220.183594 638.703125 L 74.277344 638.703125 C 61.1875 638.703125 50.484375 627.988281 50.484375 614.898438 L 50.484375 468.859375 C 50.484375 455.769531 61.1875 445.046875 74.277344 445.046875 Z M 74.277344 445.046875 " clip-rule="evenodd"/></clipPath><clipPath id="a727224627"><path d="M 88 552 L 206 552 L 206 562 L 88 562 Z M 88 552 " clip-rule="nonzero"/></clipPath><clipPath id="8728da722a"><path d="M 74.277344 445.046875 L 220.183594 445.046875 C 233.277344 445.046875 243.980469 455.769531 243.980469 468.859375 L 243.980469 614.898438 C 243.980469 627.988281 233.277344 638.703125 220.183594 638.703125 L 74.277344 638.703125 C 61.1875 638.703125 50.484375 627.988281 50.484375 614.898438 L 50.484375 468.859375 C 50.484375 455.769531 61.1875 445.046875 74.277344 445.046875 Z M 74.277344 445.046875 " clip-rule="evenodd"/></clipPath><clipPath id="0bd8ea98ed"><path d="M 118 509 L 142 509 L 142 544 L 118 544 Z M 118 509 " clip-rule="nonzero"/></clipPath><clipPath id="9bdb3f1715"><path d="M 74.277344 445.046875 L 220.183594 445.046875 C 233.277344 445.046875 243.980469 455.769531 243.980469 468.859375 L 243.980469 614.898438 C 243.980469 627.988281 233.277344 638.703125 220.183594 638.703125 L 74.277344 638.703125 C 61.1875 638.703125 50.484375 627.988281 50.484375 614.898438 L 50.484375 468.859375 C 50.484375 455.769531 61.1875 445.046875 74.277344 445.046875 Z M 74.277344 445.046875 " clip-rule="evenodd"/></clipPath><clipPath id="1e5089d035"><path d="M 106 571.664062 L 143.921875 571.664062 L 143.921875 638.714844 L 106 638.714844 Z M 106 571.664062 " clip-rule="nonzero"/></clipPath><clipPath id="04e4296332"><path d="M 74.277344 445.046875 L 220.183594 445.046875 C 233.277344 445.046875 243.980469 455.769531 243.980469 468.859375 L 243.980469 614.898438 C 243.980469 627.988281 233.277344 638.703125 220.183594 638.703125 L 74.277344 638.703125 C 61.1875 638.703125 50.484375 627.988281 50.484375 614.898438 L 50.484375 468.859375 C 50.484375 455.769531 61.1875 445.046875 74.277344 445.046875 Z M 74.277344 445.046875 " clip-rule="evenodd"/></clipPath><clipPath id="efe5a32387"><path d="M 151 572 L 189 572 L 189 638.714844 L 151 638.714844 Z M 151 572 " clip-rule="nonzero"/></clipPath><clipPath id="5bea1c33fe"><path d="M 74.277344 445.046875 L 220.183594 445.046875 C 233.277344 445.046875 243.980469 455.769531 243.980469 468.859375 L 243.980469 614.898438 C 243.980469 627.988281 233.277344 638.703125 220.183594 638.703125 L 74.277344 638.703125 C 61.1875 638.703125 50.484375 627.988281 50.484375 614.898438 L 50.484375 468.859375 C 50.484375 455.769531 61.1875 445.046875 74.277344 445.046875 Z M 74.277344 445.046875 " clip-rule="evenodd"/></clipPath></defs><path fill="#002813" d="M 264.515625 524.179688 L 285.894531 459.507812 L 308.785156 459.507812 L 329.835938 524.179688 L 312.082031 524.179688 L 308.457031 510.933594 L 285.613281 510.933594 L 281.941406 524.179688 Z M 304.875 497.734375 L 297.152344 469.453125 L 289.289062 497.734375 Z M 304.875 497.734375 " fill-opacity="1" fill-rule="nonzero"/><path fill="#002813" d="M 377.4375 473.367188 L 348.988281 473.367188 L 348.988281 486.328125 L 374.847656 486.328125 L 374.847656 499.621094 L 348.988281 499.621094 L 348.988281 524.179688 L 332.316406 524.179688 L 332.316406 459.507812 L 377.4375 459.507812 Z M 377.4375 473.367188 " fill-opacity="1" fill-rule="nonzero"/><path fill="#002813" d="M 381.585938 524.179688 L 381.585938 459.460938 L 413.847656 459.460938 C 417.671875 459.460938 421.074219 459.921875 424.066406 460.828125 C 427.082031 461.746094 429.601562 463.066406 431.648438 464.789062 C 433.722656 466.484375 435.289062 468.558594 436.359375 471.011719 C 437.417969 473.460938 437.960938 476.230469 437.960938 479.304688 C 437.960938 481.980469 437.535156 484.394531 436.6875 486.566406 C 435.839844 488.734375 434.628906 490.605469 433.0625 492.171875 C 431.519531 493.753906 429.636719 494.976562 427.410156 495.851562 C 425.207031 496.734375 422.757812 497.21875 420.0625 497.3125 C 422.699219 497.5 425.019531 498.441406 427.035156 500.140625 C 429.035156 501.835938 430.765625 504.289062 432.214844 507.492188 L 439.703125 524.179688 L 421.148438 524.179688 L 413.515625 507.539062 C 412.953125 506.253906 412.398438 505.183594 411.867188 504.335938 C 411.328125 503.484375 410.75 502.828125 410.125 502.355469 C 409.527344 501.882812 408.855469 501.554688 408.101562 501.363281 C 407.347656 501.175781 406.429688 501.082031 405.371094 501.082031 L 398.257812 501.082031 L 398.257812 524.179688 Z M 412.011719 488.167969 C 413.480469 488.167969 414.789062 488.003906 415.917969 487.648438 C 417.074219 487.308594 418.050781 486.800781 418.839844 486.140625 C 419.652344 485.480469 420.25 484.667969 420.628906 483.6875 C 421.027344 482.722656 421.242188 481.617188 421.242188 480.390625 C 421.242188 477.914062 420.453125 476.03125 418.886719 474.734375 C 417.308594 473.414062 415.023438 472.753906 412.011719 472.753906 L 398.257812 472.753906 L 398.257812 488.167969 Z M 412.011719 488.167969 " fill-opacity="1" fill-rule="nonzero"/><path fill="#002813" d="M 443.863281 459.507812 L 460.539062 459.507812 L 460.539062 524.179688 L 443.863281 524.179688 Z M 443.863281 459.507812 " fill-opacity="1" fill-rule="nonzero"/><path fill="#002813" d="M 526.097656 524.179688 L 503.441406 524.179688 L 481.917969 475.628906 L 481.917969 524.179688 L 466.046875 524.179688 L 466.046875 459.507812 L 490.066406 459.507812 L 510.175781 504.617188 L 510.175781 459.507812 L 526.097656 459.507812 Z M 526.097656 524.179688 " fill-opacity="1" fill-rule="nonzero"/><path fill="#002813" d="M 531.625 459.507812 L 556.304688 459.507812 C 559.53125 459.507812 562.566406 459.863281 565.394531 460.546875 C 568.242188 461.242188 570.867188 462.230469 573.257812 463.515625 C 575.671875 464.8125 577.839844 466.390625 579.757812 468.277344 C 581.664062 470.160156 583.289062 472.316406 584.609375 474.734375 C 585.953125 477.125 586.976562 479.753906 587.671875 482.605469 C 588.386719 485.46875 588.753906 488.542969 588.753906 491.84375 C 588.753906 495.144531 588.386719 498.230469 587.671875 501.082031 C 586.976562 503.945312 585.953125 506.585938 584.609375 509 C 583.289062 511.394531 581.664062 513.527344 579.757812 515.410156 C 577.839844 517.296875 575.671875 518.886719 573.257812 520.171875 C 570.867188 521.46875 568.242188 522.457031 565.394531 523.140625 C 562.566406 523.835938 559.53125 524.179688 556.304688 524.179688 L 531.625 524.179688 Z M 555.832031 510.226562 C 558.433594 510.226562 560.730469 509.835938 562.710938 509.046875 C 564.710938 508.269531 566.394531 507.105469 567.75 505.558594 C 569.125 504.027344 570.164062 502.109375 570.855469 499.808594 C 571.574219 497.523438 571.941406 494.859375 571.941406 491.84375 C 571.941406 488.828125 571.574219 486.175781 570.855469 483.878906 C 570.164062 481.59375 569.125 479.671875 567.75 478.128906 C 566.394531 476.59375 564.710938 475.429688 562.710938 474.640625 C 560.730469 473.863281 558.433594 473.460938 555.832031 473.460938 L 548.203125 473.460938 L 548.203125 510.226562 Z M 555.832031 510.226562 " fill-opacity="1" fill-rule="nonzero"/><path fill="#002813" d="M 638.730469 459.507812 L 638.730469 473.367188 L 610.285156 473.367188 L 610.285156 485.433594 L 636.140625 485.433594 L 636.140625 498.347656 L 610.285156 498.347656 L 610.285156 510.320312 L 639.484375 510.320312 L 639.484375 524.179688 L 593.613281 524.179688 L 593.613281 459.507812 Z M 638.730469 459.507812 " fill-opacity="1" fill-rule="nonzero"/><path fill="#002813" d="M 643.648438 459.507812 L 674.496094 459.507812 C 677.039062 459.507812 679.417969 459.769531 681.65625 460.261719 C 683.878906 460.734375 685.941406 461.429688 687.824219 462.335938 C 689.707031 463.222656 691.402344 464.304688 692.910156 465.589844 C 694.417969 466.886719 695.6875 468.347656 696.726562 469.972656 C 697.785156 471.609375 698.585938 473.402344 699.128906 475.347656 C 699.691406 477.265625 699.976562 479.304688 699.976562 481.472656 C 699.976562 483.640625 699.691406 485.703125 699.128906 487.648438 C 698.585938 489.570312 697.785156 491.347656 696.726562 492.976562 C 695.6875 494.613281 694.417969 496.074219 692.910156 497.359375 C 691.402344 498.65625 689.707031 499.75 687.824219 500.65625 C 685.941406 501.578125 683.867188 502.285156 681.605469 502.777344 C 679.371094 503.25 677.003906 503.484375 674.496094 503.484375 L 660.320312 503.484375 L 660.320312 524.179688 L 643.648438 524.179688 Z M 673.742188 490.148438 C 675.25 490.148438 676.578125 489.957031 677.746094 489.582031 C 678.933594 489.203125 679.933594 488.636719 680.757812 487.882812 C 681.605469 487.128906 682.230469 486.222656 682.644531 485.152344 C 683.078125 484.054688 683.300781 482.828125 683.300781 481.472656 C 683.300781 480.128906 683.078125 478.917969 682.644531 477.84375 C 682.230469 476.75 681.617188 475.839844 680.804688 475.109375 C 679.980469 474.355469 678.980469 473.789062 677.792969 473.414062 C 676.625 473.011719 675.296875 472.800781 673.789062 472.800781 L 660.320312 472.800781 L 660.320312 490.148438 Z M 673.742188 490.148438 " fill-opacity="1" fill-rule="nonzero"/><path fill="#002813" d="M 749.9375 459.507812 L 749.9375 473.367188 L 721.492188 473.367188 L 721.492188 485.433594 L 747.347656 485.433594 L 747.347656 498.347656 L 721.492188 498.347656 L 721.492188 510.320312 L 750.691406 510.320312 L 750.691406 524.179688 L 704.820312 524.179688 L 704.820312 459.507812 Z M 749.9375 459.507812 " fill-opacity="1" fill-rule="nonzero"/><path fill="#002813" d="M 814.902344 524.179688 L 792.25 524.179688 L 770.726562 475.628906 L 770.726562 524.179688 L 754.855469 524.179688 L 754.855469 459.507812 L 778.875 459.507812 L 798.984375 504.617188 L 798.984375 459.507812 L 814.902344 459.507812 Z M 814.902344 524.179688 " fill-opacity="1" fill-rule="nonzero"/><path fill="#002813" d="M 820.433594 459.507812 L 845.113281 459.507812 C 848.339844 459.507812 851.375 459.863281 854.203125 460.546875 C 857.050781 461.242188 859.675781 462.230469 862.066406 463.515625 C 864.480469 464.8125 866.648438 466.390625 868.566406 468.277344 C 870.472656 470.160156 872.097656 472.316406 873.417969 474.734375 C 874.757812 477.125 875.785156 479.753906 876.476562 482.605469 C 877.195312 485.46875 877.5625 488.542969 877.5625 491.84375 C 877.5625 495.144531 877.195312 498.230469 876.476562 501.082031 C 875.785156 503.945312 874.757812 506.585938 873.417969 509 C 872.097656 511.394531 870.472656 513.527344 868.566406 515.410156 C 866.648438 517.296875 864.480469 518.886719 862.066406 520.171875 C 859.675781 521.46875 857.050781 522.457031 854.203125 523.140625 C 851.375 523.835938 848.339844 524.179688 845.113281 524.179688 L 820.433594 524.179688 Z M 844.640625 510.226562 C 847.242188 510.226562 849.539062 509.835938 851.515625 509.046875 C 853.519531 508.269531 855.203125 507.105469 856.554688 505.558594 C 857.933594 504.027344 858.96875 502.109375 859.664062 499.808594 C 860.382812 497.523438 860.75 494.859375 860.75 491.84375 C 860.75 488.828125 860.382812 486.175781 859.664062 483.878906 C 858.96875 481.59375 857.933594 479.671875 856.554688 478.128906 C 855.203125 476.59375 853.519531 475.429688 851.515625 474.640625 C 849.539062 473.863281 847.242188 473.460938 844.640625 473.460938 L 837.011719 473.460938 L 837.011719 510.226562 Z M 844.640625 510.226562 " fill-opacity="1" fill-rule="nonzero"/><path fill="#002813" d="M 927.539062 459.507812 L 927.539062 473.367188 L 899.089844 473.367188 L 899.089844 485.433594 L 924.949219 485.433594 L 924.949219 498.347656 L 899.089844 498.347656 L 899.089844 510.320312 L 928.292969 510.320312 L 928.292969 524.179688 L 882.417969 524.179688 L 882.417969 459.507812 Z M 927.539062 459.507812 " fill-opacity="1" fill-rule="nonzero"/><path fill="#002813" d="M 992.503906 524.179688 L 969.851562 524.179688 L 948.328125 475.628906 L 948.328125 524.179688 L 932.457031 524.179688 L 932.457031 459.507812 L 956.476562 459.507812 L 976.585938 504.617188 L 976.585938 459.507812 L 992.503906 459.507812 Z M 992.503906 524.179688 " fill-opacity="1" fill-rule="nonzero"/><path fill="#002813" d="M 1050.875 473.367188 L 1031.753906 473.367188 L 1031.753906 524.179688 L 1015.082031 524.179688 L 1015.082031 473.367188 L 995.960938 473.367188 L 995.960938 459.507812 L 1050.875 459.507812 Z M 1050.875 473.367188 " fill-opacity="1" fill-rule="nonzero"/><g clip-path="url(#0155272a5e)"><path fill="#002813" d="M 74.277344 445.046875 L 220.183594 445.046875 C 233.277344 445.046875 243.980469 455.769531 243.980469 468.859375 L 243.980469 614.898438 C 243.980469 627.988281 233.277344 638.703125 220.183594 638.703125 L 74.277344 638.703125 C 61.1875 638.703125 50.484375 627.988281 50.484375 614.898438 L 50.484375 468.859375 C 50.484375 455.769531 61.1875 445.046875 74.277344 445.046875 Z M 74.277344 445.046875 " fill-opacity="1" fill-rule="evenodd"/></g><g clip-path="url(#3d1b19f3a3)"><g clip-path="url(#660b782e29)"><path fill="#ffd700" d="M 162.101562 524.882812 C 157.332031 521.464844 155.992188 516.515625 151.5625 510.8125 C 147.820312 505.96875 143.394531 502.941406 140.800781 499.863281 C 138.269531 496.871094 134.84375 491.308594 132.585938 485.933594 L 128.464844 474.457031 C 126.742188 470.957031 128.003906 472.726562 125.753906 470.25 C 112.816406 511.09375 153.449219 497.671875 147.796875 542.167969 C 153.917969 541.660156 156.261719 541.898438 161.558594 538.089844 C 173.15625 529.757812 178.527344 511.882812 174.074219 494.878906 C 171.652344 485.617188 165.609375 476.109375 161.40625 470.015625 C 155.226562 461.035156 153.988281 456.085938 148.46875 446.292969 C 131.855469 473.066406 176.761719 469.734375 162.101562 524.882812 Z M 162.101562 524.882812 " fill-opacity="1" fill-rule="evenodd"/></g></g><g clip-path="url(#a727224627)"><g clip-path="url(#8728da722a)"><path fill="#ffd700" d="M 88.949219 552.160156 L 205.511719 552.160156 L 205.511719 561.929688 L 88.949219 561.929688 Z M 88.949219 552.160156 " fill-opacity="1" fill-rule="evenodd"/></g></g><g clip-path="url(#0bd8ea98ed)"><g clip-path="url(#9bdb3f1715)"><path fill="#ffd700" d="M 119.265625 510.847656 C 118.457031 512.589844 117.714844 516.75 118.300781 519.4375 C 118.902344 522.113281 120.832031 523.300781 123.800781 526.011719 C 126.78125 528.722656 130.78125 532.964844 132.832031 535.757812 C 134.878906 538.539062 134.949219 539.882812 135.140625 541.214844 C 135.316406 542.558594 135.621094 543.898438 136.882812 543.488281 C 138.140625 543.074219 140.367188 540.917969 141.074219 537.984375 C 141.78125 535.050781 140.96875 531.328125 137.503906 526.601562 C 134.054688 521.886719 127.96875 516.160156 124.472656 512.96875 C 120.976562 509.761719 120.089844 509.089844 119.265625 510.847656 Z M 119.265625 510.847656 " fill-opacity="1" fill-rule="evenodd"/></g></g><g clip-path="url(#1e5089d035)"><g clip-path="url(#04e4296332)"><path fill="#ffd700" d="M 112.699219 571.945312 C 116.03125 571.96875 121.117188 571.980469 123.90625 572.015625 C 126.695312 572.0625 127.179688 572.144531 128.167969 572.417969 C 129.15625 572.6875 130.628906 573.160156 131.984375 573.75 C 133.347656 574.335938 134.597656 575.070312 135.808594 576.023438 C 137.023438 576.976562 138.199219 578.167969 139.09375 579.261719 C 139.976562 580.371094 140.589844 581.382812 141.121094 582.527344 C 141.636719 583.671875 142.085938 584.941406 142.425781 586.488281 C 142.757812 588.03125 142.980469 589.855469 143.085938 599.933594 C 143.203125 609.996094 143.203125 628.308594 143.238281 637.441406 C 143.285156 646.574219 143.367188 646.527344 141.78125 646.503906 C 140.203125 646.480469 136.964844 646.480469 135.410156 646.207031 C 133.867188 645.925781 134.007812 645.382812 134.054688 636.226562 C 134.113281 627.082031 134.054688 609.324219 133.949219 600.109375 C 133.832031 590.882812 133.65625 590.210938 133.253906 589.28125 C 132.855469 588.347656 132.230469 587.160156 131.359375 586.085938 C 130.5 585.003906 129.40625 584.023438 128.144531 583.257812 C 126.886719 582.480469 125.472656 581.914062 123.683594 581.5625 C 121.90625 581.207031 119.75 581.054688 117.632812 580.972656 C 115.5 580.878906 113.378906 580.84375 111.566406 580.832031 C 109.753906 580.832031 108.234375 580.855469 107.421875 580.808594 C 106.609375 580.773438 106.503906 580.652344 106.445312 579.085938 C 106.386719 577.53125 106.386719 574.503906 106.363281 573.054688 C 106.328125 571.59375 106.269531 571.699219 107.023438 571.78125 C 107.789062 571.863281 109.367188 571.910156 112.699219 571.945312 Z M 112.699219 571.945312 " fill-opacity="1" fill-rule="evenodd"/></g></g><g clip-path="url(#efe5a32387)"><g clip-path="url(#5bea1c33fe)"><path fill="#ffd700" d="M 182.117188 572.5 C 178.785156 572.535156 173.710938 572.535156 170.921875 572.582031 C 168.128906 572.628906 167.636719 572.710938 166.644531 572.984375 C 165.667969 573.253906 164.199219 573.714844 162.832031 574.3125 C 161.476562 574.902344 160.230469 575.632812 159.015625 576.589844 C 157.804688 577.542969 156.625 578.722656 155.730469 579.828125 C 154.835938 580.925781 154.238281 581.9375 153.707031 583.082031 C 153.175781 584.222656 152.730469 585.496094 152.398438 587.050781 C 152.058594 588.597656 151.835938 590.421875 151.730469 600.484375 C 151.621094 610.5625 151.621094 628.875 151.574219 638.007812 C 151.539062 647.136719 151.457031 647.089844 153.035156 647.066406 C 154.613281 647.042969 157.863281 647.042969 159.40625 646.761719 C 160.960938 646.492188 160.804688 645.949219 160.757812 636.792969 C 160.710938 627.636719 160.757812 609.878906 160.878906 600.664062 C 160.984375 591.449219 161.160156 590.765625 161.558594 589.832031 C 161.972656 588.902344 162.597656 587.722656 163.457031 586.640625 C 164.316406 585.566406 165.421875 584.589844 166.671875 583.8125 C 167.929688 583.046875 169.355469 582.480469 171.132812 582.128906 C 172.921875 581.773438 175.066406 581.621094 177.195312 581.527344 C 179.328125 581.433594 181.433594 581.394531 183.246094 581.394531 C 185.074219 581.382812 186.578125 581.40625 187.390625 581.371094 C 188.203125 581.324219 188.324219 581.21875 188.371094 579.652344 C 188.429688 578.085938 188.429688 575.070312 188.464844 573.605469 C 188.488281 572.15625 188.546875 572.265625 187.792969 572.335938 C 187.039062 572.417969 185.449219 572.476562 182.117188 572.5 Z M 182.117188 572.5 " fill-opacity="1" fill-rule="evenodd"/></g></g><path fill="#002813" d="M 263.585938 556.347656 L 280.257812 556.347656 L 280.257812 621.019531 L 263.585938 621.019531 Z M 263.585938 556.347656 " fill-opacity="1" fill-rule="nonzero"/><path fill="#002813" d="M 345.816406 621.019531 L 323.164062 621.019531 L 301.640625 572.46875 L 301.640625 621.019531 L 285.769531 621.019531 L 285.769531 556.347656 L 309.789062 556.347656 L 329.898438 601.457031 L 329.898438 556.347656 L 345.816406 556.347656 Z M 345.816406 621.019531 " fill-opacity="1" fill-rule="nonzero"/><path fill="#002813" d="M 378.898438 554.980469 C 383.195312 554.980469 387.058594 555.5 390.484375 556.535156 C 393.898438 557.550781 396.808594 559.011719 399.199219 560.921875 C 401.578125 562.804688 403.402344 565.140625 404.660156 567.894531 C 405.945312 570.628906 406.59375 573.730469 406.59375 577.183594 L 390.671875 577.183594 C 390.671875 575.804688 390.390625 574.566406 389.824219 573.457031 C 389.261719 572.328125 388.4375 571.371094 387.375 570.582031 C 386.339844 569.804688 385.082031 569.203125 383.609375 568.792969 C 382.125 568.355469 380.476562 568.132812 378.664062 568.132812 C 377.15625 568.132812 375.707031 568.296875 374.332031 568.601562 C 372.976562 568.886719 371.789062 569.332031 370.75 569.921875 C 369.714844 570.488281 368.878906 571.195312 368.253906 572.042969 C 367.65625 572.890625 367.359375 573.871094 367.359375 574.964844 C 367.359375 576.097656 367.621094 577.015625 368.160156 577.699219 C 368.726562 578.394531 369.550781 578.972656 370.65625 579.445312 C 371.789062 579.890625 373.199219 580.269531 374.894531 580.574219 C 376.589844 580.859375 378.570312 581.164062 380.832031 581.472656 L 383.136719 581.800781 C 384.457031 581.988281 385.835938 582.214844 387.28125 582.460938 C 388.71875 582.683594 390.167969 582.96875 391.617188 583.308594 C 393.050781 583.628906 394.488281 584.039062 395.902344 584.535156 C 397.3125 585.007812 398.644531 585.570312 399.90625 586.230469 C 401.152344 586.890625 402.316406 587.691406 403.390625 588.636719 C 404.449219 589.554688 405.378906 590.617188 406.167969 591.839844 C 406.945312 593.042969 407.558594 594.421875 408.003906 595.988281 C 408.441406 597.53125 408.664062 599.289062 408.664062 601.269531 C 408.664062 604.660156 407.96875 607.679688 406.59375 610.316406 C 405.238281 612.957031 403.296875 615.171875 400.753906 616.964844 C 398.234375 618.730469 395.171875 620.074219 391.566406 621.019531 C 387.953125 621.925781 383.902344 622.382812 379.417969 622.382812 C 374.613281 622.382812 370.351562 621.867188 366.65625 620.828125 C 362.980469 619.792969 359.882812 618.308594 357.375 616.351562 C 354.855469 614.371094 352.960938 611.992188 351.679688 609.1875 C 350.417969 606.359375 349.792969 603.152344 349.792969 599.570312 L 365.710938 599.570312 C 365.710938 601.078125 366.007812 602.433594 366.605469 603.625 C 367.230469 604.828125 368.125 605.839844 369.292969 606.6875 C 370.480469 607.511719 371.90625 608.136719 373.578125 608.574219 C 375.273438 609.023438 377.179688 609.234375 379.324219 609.234375 C 381.136719 609.234375 382.820312 609.082031 384.363281 608.761719 C 385.929688 608.421875 387.28125 607.949219 388.414062 607.347656 C 389.542969 606.722656 390.4375 605.957031 391.097656 605.039062 C 391.757812 604.097656 392.085938 603.011719 392.085938 601.785156 C 392.085938 600.5625 391.804688 599.59375 391.238281 598.863281 C 390.671875 598.109375 389.824219 597.496094 388.695312 597.027344 C 387.589844 596.554688 386.210938 596.175781 384.550781 595.894531 C 382.914062 595.613281 381.019531 595.328125 378.851562 595.046875 L 375.839844 594.621094 C 374.070312 594.375 372.234375 594.101562 370.328125 593.820312 C 368.445312 593.515625 366.570312 593.101562 364.722656 592.59375 C 362.863281 592.066406 361.097656 591.371094 359.402344 590.519531 C 357.730469 589.671875 356.257812 588.613281 354.972656 587.316406 C 353.679688 586.03125 352.667969 584.476562 351.914062 582.648438 C 351.160156 580.835938 350.78125 578.644531 350.78125 576.097656 C 350.78125 573.8125 351.089844 571.703125 351.726562 569.78125 C 352.382812 567.835938 353.289062 566.09375 354.457031 564.550781 C 355.644531 562.980469 357.09375 561.605469 358.789062 560.402344 C 360.484375 559.210938 362.367188 558.222656 364.441406 557.433594 C 366.511719 556.617188 368.75 556.007812 371.175781 555.59375 C 373.625 555.191406 376.191406 554.980469 378.898438 554.980469 Z M 378.898438 554.980469 " fill-opacity="1" fill-rule="nonzero"/><path fill="#002813" d="M 465.476562 570.207031 L 446.355469 570.207031 L 446.355469 621.019531 L 429.683594 621.019531 L 429.683594 570.207031 L 410.5625 570.207031 L 410.5625 556.347656 L 465.476562 556.347656 Z M 465.476562 570.207031 " fill-opacity="1" fill-rule="nonzero"/><path fill="#002813" d="M 468.972656 556.347656 L 485.644531 556.347656 L 485.644531 621.019531 L 468.972656 621.019531 Z M 468.972656 556.347656 " fill-opacity="1" fill-rule="nonzero"/><path fill="#002813" d="M 543.996094 570.207031 L 524.875 570.207031 L 524.875 621.019531 L 508.203125 621.019531 L 508.203125 570.207031 L 489.082031 570.207031 L 489.082031 556.347656 L 543.996094 556.347656 Z M 543.996094 570.207031 " fill-opacity="1" fill-rule="nonzero"/><path fill="#002813" d="M 547.492188 556.347656 L 564.164062 556.347656 L 564.164062 593.726562 C 564.164062 596.308594 564.414062 598.523438 564.917969 600.371094 C 565.414062 602.234375 566.167969 603.753906 567.179688 604.945312 C 568.179688 606.109375 569.417969 606.972656 570.898438 607.535156 C 572.371094 608.101562 574.066406 608.386719 575.988281 608.386719 C 577.894531 608.386719 579.589844 608.101562 581.074219 607.535156 C 582.542969 606.972656 583.78125 606.109375 584.792969 604.945312 C 585.792969 603.753906 586.546875 602.234375 587.054688 600.371094 C 587.550781 598.523438 587.808594 596.308594 587.808594 593.726562 L 587.808594 556.347656 L 604.480469 556.347656 L 604.480469 595.234375 C 604.480469 599.605469 603.773438 603.472656 602.359375 606.828125 C 600.972656 610.199219 599.015625 613.039062 596.472656 615.363281 C 593.953125 617.660156 590.964844 619.402344 587.476562 620.59375 C 583.992188 621.785156 580.15625 622.382812 575.988281 622.382812 C 573.183594 622.382812 570.546875 622.113281 568.074219 621.582031 C 565.589844 621.042969 563.28125 620.261719 561.152344 619.226562 C 559.042969 618.191406 557.148438 616.90625 555.453125 615.363281 C 553.78125 613.828125 552.355469 612.050781 551.167969 610.035156 C 549.964844 608.03125 549.058594 605.792969 548.433594 603.34375 C 547.800781 600.867188 547.492188 598.15625 547.492188 595.234375 Z M 547.492188 556.347656 " fill-opacity="1" fill-rule="nonzero"/><path fill="#002813" d="M 662.863281 570.207031 L 643.742188 570.207031 L 643.742188 621.019531 L 627.070312 621.019531 L 627.070312 570.207031 L 607.949219 570.207031 L 607.949219 556.347656 L 662.863281 556.347656 Z M 662.863281 570.207031 " fill-opacity="1" fill-rule="nonzero"/><path fill="#002813" d="M 711.476562 556.347656 L 711.476562 570.207031 L 683.03125 570.207031 L 683.03125 582.273438 L 708.886719 582.273438 L 708.886719 595.1875 L 683.03125 595.1875 L 683.03125 607.160156 L 712.230469 607.160156 L 712.230469 621.019531 L 666.359375 621.019531 L 666.359375 556.347656 Z M 711.476562 556.347656 " fill-opacity="1" fill-rule="nonzero"/></svg>