<svg xmlns="http://www.w3.org/2000/svg" xmlns:xlink="http://www.w3.org/1999/xlink" width="1500" zoomAndPan="magnify" viewBox="0 0 1125 1124.99995" height="1500" preserveAspectRatio="xMidYMid meet" version="1.0"><defs><clipPath id="e3f74c1076"><path d="M 434.65625 265.742188 L 678 265.742188 L 678 509 L 434.65625 509 Z M 434.65625 265.742188 " clip-rule="nonzero"/></clipPath><clipPath id="c18f257fba"><path d="M 525 267 L 592 267 L 592 388 L 525 388 Z M 525 267 " clip-rule="nonzero"/></clipPath><clipPath id="5d93d73b26"><path d="M 464.449219 265.742188 L 647.3125 265.742188 C 663.726562 265.742188 677.105469 279.167969 677.105469 295.515625 L 677.105469 478.265625 C 677.105469 494.667969 663.726562 508.097656 647.3125 508.097656 L 464.449219 508.097656 C 448.09375 508.097656 434.65625 494.667969 434.65625 478.265625 L 434.65625 295.515625 C 434.65625 279.167969 448.09375 265.742188 464.449219 265.742188 Z M 464.449219 265.742188 " clip-rule="evenodd"/></clipPath><clipPath id="a04fe4582c"><path d="M 482 399 L 629 399 L 629 412 L 482 412 Z M 482 399 " clip-rule="nonzero"/></clipPath><clipPath id="db35246226"><path d="M 464.449219 265.742188 L 647.3125 265.742188 C 663.726562 265.742188 677.105469 279.167969 677.105469 295.515625 L 677.105469 478.265625 C 677.105469 494.667969 663.726562 508.097656 647.3125 508.097656 L 464.449219 508.097656 C 448.09375 508.097656 434.65625 494.667969 434.65625 478.265625 L 434.65625 295.515625 C 434.65625 279.167969 448.09375 265.742188 464.449219 265.742188 Z M 464.449219 265.742188 " clip-rule="evenodd"/></clipPath><clipPath id="2535783f92"><path d="M 519 346 L 549 346 L 549 390 L 519 390 Z M 519 346 " clip-rule="nonzero"/></clipPath><clipPath id="e063589948"><path d="M 464.449219 265.742188 L 647.3125 265.742188 C 663.726562 265.742188 677.105469 279.167969 677.105469 295.515625 L 677.105469 478.265625 C 677.105469 494.667969 663.726562 508.097656 647.3125 508.097656 L 464.449219 508.097656 C 448.09375 508.097656 434.65625 494.667969 434.65625 478.265625 L 434.65625 295.515625 C 434.65625 279.167969 448.09375 265.742188 464.449219 265.742188 Z M 464.449219 265.742188 " clip-rule="evenodd"/></clipPath><clipPath id="8b2476867c"><path d="M 504 424 L 551 424 L 551 508.097656 L 504 508.097656 Z M 504 424 " clip-rule="nonzero"/></clipPath><clipPath id="c440667878"><path d="M 464.449219 265.742188 L 647.3125 265.742188 C 663.726562 265.742188 677.105469 279.167969 677.105469 295.515625 L 677.105469 478.265625 C 677.105469 494.667969 663.726562 508.097656 647.3125 508.097656 L 464.449219 508.097656 C 448.09375 508.097656 434.65625 494.667969 434.65625 478.265625 L 434.65625 295.515625 C 434.65625 279.167969 448.09375 265.742188 464.449219 265.742188 Z M 464.449219 265.742188 " clip-rule="evenodd"/></clipPath><clipPath id="ae00e54b14"><path d="M 561 424 L 608 424 L 608 508.097656 L 561 508.097656 Z M 561 424 " clip-rule="nonzero"/></clipPath><clipPath id="bb4f5509d7"><path d="M 464.449219 265.742188 L 647.3125 265.742188 C 663.726562 265.742188 677.105469 279.167969 677.105469 295.515625 L 677.105469 478.265625 C 677.105469 494.667969 663.726562 508.097656 647.3125 508.097656 L 464.449219 508.097656 C 448.09375 508.097656 434.65625 494.667969 434.65625 478.265625 L 434.65625 295.515625 C 434.65625 279.167969 448.09375 265.742188 464.449219 265.742188 Z M 464.449219 265.742188 " clip-rule="evenodd"/></clipPath></defs><path fill="#002813" d="M 66.613281 627.554688 L 93.144531 547.332031 L 121.703125 547.332031 L 147.785156 627.554688 L 125.75 627.554688 L 121.253906 611.152344 L 92.921875 611.152344 L 88.421875 627.554688 Z M 116.753906 594.746094 L 107.3125 559.691406 L 97.417969 594.746094 Z M 116.753906 594.746094 " fill-opacity="1" fill-rule="nonzero"/><path fill="#002813" d="M 206.871094 564.636719 L 171.570312 564.636719 L 171.570312 580.589844 L 203.722656 580.589844 L 203.722656 597.21875 L 171.570312 597.21875 L 171.570312 627.554688 L 150.882812 627.554688 L 150.882812 547.332031 L 206.871094 547.332031 Z M 206.871094 564.636719 " fill-opacity="1" fill-rule="nonzero"/><path fill="#002813" d="M 212.101562 627.554688 L 212.101562 547.332031 L 252.125 547.332031 C 256.902344 547.332031 261.175781 547.949219 264.941406 549.128906 C 268.652344 550.195312 271.800781 551.769531 274.386719 553.847656 C 276.914062 555.984375 278.882812 558.566406 280.234375 561.714844 C 281.582031 564.746094 282.257812 568.117188 282.257812 571.824219 C 282.257812 575.140625 281.695312 578.117188 280.683594 580.8125 C 279.613281 583.511719 278.097656 585.871094 276.183594 587.78125 C 274.21875 589.746094 271.800781 591.320312 268.988281 592.5 C 266.292969 593.566406 263.257812 594.183594 259.996094 594.296875 C 263.257812 594.464844 266.121094 595.589844 268.539062 597.667969 C 271.070312 599.804688 273.261719 602.835938 275.0625 606.882812 L 284.28125 627.554688 L 261.34375 627.554688 L 251.902344 606.882812 C 251.113281 605.253906 250.382812 603.960938 249.652344 603.0625 C 249.035156 602.050781 248.359375 601.207031 247.628906 600.589844 C 246.839844 600.027344 245.941406 599.578125 244.929688 599.242188 C 244.03125 598.960938 242.960938 598.792969 241.78125 598.792969 L 232.789062 598.792969 L 232.789062 627.554688 Z M 249.878906 582.835938 C 251.789062 582.835938 253.476562 582.722656 254.824219 582.386719 C 256.285156 581.9375 257.523438 581.375 258.421875 580.589844 C 259.433594 579.691406 260.21875 578.679688 260.671875 577.445312 C 261.121094 576.265625 261.34375 574.859375 261.34375 573.175781 C 261.34375 570.195312 260.332031 567.894531 258.421875 566.207031 C 256.453125 564.578125 253.585938 563.734375 249.878906 563.734375 L 232.789062 563.734375 L 232.789062 582.835938 Z M 249.878906 582.835938 " fill-opacity="1" fill-rule="nonzero"/><path fill="#002813" d="M 289.488281 547.332031 L 310.175781 547.332031 L 310.175781 627.554688 L 289.488281 627.554688 Z M 289.488281 547.332031 " fill-opacity="1" fill-rule="nonzero"/><path fill="#002813" d="M 391.707031 627.554688 L 363.597656 627.554688 L 336.839844 567.332031 L 336.839844 627.554688 L 317.054688 627.554688 L 317.054688 547.332031 L 346.960938 547.332031 L 371.917969 603.285156 L 371.917969 547.332031 L 391.707031 547.332031 Z M 391.707031 627.554688 " fill-opacity="1" fill-rule="nonzero"/><path fill="#002813" d="M 398.539062 547.332031 L 429.34375 547.332031 C 433.222656 547.332031 436.875 547.78125 440.363281 548.679688 C 443.960938 549.578125 447.21875 550.871094 450.253906 552.5 C 453.234375 554.015625 455.933594 555.984375 458.351562 558.34375 C 460.710938 560.589844 462.734375 563.230469 464.421875 566.207031 C 466.050781 569.242188 467.34375 572.5 468.242188 576.09375 C 469.144531 579.578125 469.59375 583.398438 469.59375 587.554688 C 469.59375 591.601562 469.144531 595.421875 468.242188 599.015625 C 467.34375 602.5 466.050781 605.703125 464.421875 608.679688 C 462.734375 611.710938 460.710938 614.410156 458.351562 616.769531 C 455.933594 619.015625 453.234375 620.980469 450.253906 622.613281 C 447.21875 624.296875 443.960938 625.53125 440.363281 626.433594 C 436.875 627.21875 433.222656 627.554688 429.34375 627.554688 L 398.539062 627.554688 Z M 428.667969 610.253906 C 431.929688 610.253906 434.796875 609.800781 437.214844 608.902344 C 439.742188 607.894531 441.824219 606.375 443.511719 604.410156 C 445.140625 602.5 446.433594 600.140625 447.332031 597.441406 C 448.230469 594.632812 448.683594 591.320312 448.683594 587.554688 C 448.683594 583.847656 448.230469 580.535156 447.332031 577.667969 C 446.433594 574.859375 445.140625 572.445312 443.511719 570.476562 C 441.824219 568.566406 439.742188 567.105469 437.214844 566.207031 C 434.796875 565.195312 431.929688 564.636719 428.667969 564.636719 L 419.226562 564.636719 L 419.226562 610.253906 Z M 428.667969 610.253906 " fill-opacity="1" fill-rule="nonzero"/><path fill="#002813" d="M 531.550781 547.332031 L 531.550781 564.636719 L 496.25 564.636719 L 496.25 579.464844 L 528.402344 579.464844 L 528.402344 595.421875 L 496.25 595.421875 L 496.25 610.476562 L 532.675781 610.476562 L 532.675781 627.554688 L 475.5625 627.554688 L 475.5625 547.332031 Z M 531.550781 547.332031 " fill-opacity="1" fill-rule="nonzero"/><path fill="#002813" d="M 537.734375 547.332031 L 576.1875 547.332031 C 579.332031 547.332031 582.257812 547.667969 584.957031 548.230469 C 587.765625 548.847656 590.351562 549.746094 592.601562 550.925781 C 594.960938 551.996094 597.097656 553.34375 598.894531 554.972656 C 600.808594 556.488281 602.382812 558.285156 603.617188 560.367188 C 604.96875 562.332031 605.921875 564.523438 606.542969 566.882812 C 607.273438 569.296875 607.664062 571.824219 607.664062 574.523438 C 607.664062 577.21875 607.273438 579.804688 606.542969 582.164062 C 605.921875 584.578125 604.96875 586.824219 603.617188 588.902344 C 602.382812 590.871094 600.808594 592.667969 598.894531 594.296875 C 597.097656 595.984375 594.960938 597.386719 592.601562 598.566406 C 590.351562 599.632812 587.765625 600.476562 584.957031 601.039062 C 582.257812 601.65625 579.332031 601.9375 576.1875 601.9375 L 558.421875 601.9375 L 558.421875 627.554688 L 537.734375 627.554688 Z M 575.285156 585.308594 C 577.085938 585.308594 578.714844 585.085938 580.234375 584.632812 C 581.695312 584.183594 582.929688 583.511719 583.832031 582.613281 C 584.84375 581.714844 585.628906 580.589844 586.078125 579.242188 C 586.640625 577.894531 586.980469 576.320312 586.980469 574.523438 C 586.980469 572.894531 586.640625 571.375 586.078125 570.027344 C 585.628906 568.679688 584.84375 567.554688 583.832031 566.65625 C 582.929688 565.757812 581.695312 565.085938 580.234375 564.636719 C 578.714844 564.183594 577.085938 563.960938 575.285156 563.960938 L 558.421875 563.960938 L 558.421875 585.308594 Z M 575.285156 585.308594 " fill-opacity="1" fill-rule="nonzero"/><path fill="#002813" d="M 669.738281 547.332031 L 669.738281 564.636719 L 634.433594 564.636719 L 634.433594 579.464844 L 666.589844 579.464844 L 666.589844 595.421875 L 634.433594 595.421875 L 634.433594 610.476562 L 670.859375 610.476562 L 670.859375 627.554688 L 613.746094 627.554688 L 613.746094 547.332031 Z M 669.738281 547.332031 " fill-opacity="1" fill-rule="nonzero"/><path fill="#002813" d="M 750.574219 627.554688 L 722.464844 627.554688 L 695.707031 567.332031 L 695.707031 627.554688 L 675.921875 627.554688 L 675.921875 547.332031 L 705.828125 547.332031 L 730.785156 603.285156 L 730.785156 547.332031 L 750.574219 547.332031 Z M 750.574219 627.554688 " fill-opacity="1" fill-rule="nonzero"/><path fill="#002813" d="M 757.40625 547.332031 L 788.210938 547.332031 C 792.089844 547.332031 795.746094 547.78125 799.230469 548.679688 C 802.828125 549.578125 806.089844 550.871094 809.125 552.5 C 812.101562 554.015625 814.800781 555.984375 817.21875 558.34375 C 819.578125 560.589844 821.601562 563.230469 823.289062 566.207031 C 824.921875 569.242188 826.214844 572.5 827.113281 576.09375 C 828.011719 579.578125 828.460938 583.398438 828.460938 587.554688 C 828.460938 591.601562 828.011719 595.421875 827.113281 599.015625 C 826.214844 602.5 824.921875 605.703125 823.289062 608.679688 C 821.601562 611.710938 819.578125 614.410156 817.21875 616.769531 C 814.800781 619.015625 812.101562 620.980469 809.125 622.613281 C 806.089844 624.296875 802.828125 625.53125 799.230469 626.433594 C 795.746094 627.21875 792.089844 627.554688 788.210938 627.554688 L 757.40625 627.554688 Z M 787.539062 610.253906 C 790.796875 610.253906 793.664062 609.800781 796.082031 608.902344 C 798.613281 607.894531 800.691406 606.375 802.378906 604.410156 C 804.007812 602.5 805.300781 600.140625 806.199219 597.441406 C 807.101562 594.632812 807.550781 591.320312 807.550781 587.554688 C 807.550781 583.847656 807.101562 580.535156 806.199219 577.667969 C 805.300781 574.859375 804.007812 572.445312 802.378906 570.476562 C 800.691406 568.566406 798.613281 567.105469 796.082031 566.207031 C 793.664062 565.195312 790.796875 564.636719 787.539062 564.636719 L 778.09375 564.636719 L 778.09375 610.253906 Z M 787.539062 610.253906 " fill-opacity="1" fill-rule="nonzero"/><path fill="#002813" d="M 890.417969 547.332031 L 890.417969 564.636719 L 855.117188 564.636719 L 855.117188 579.464844 L 887.269531 579.464844 L 887.269531 595.421875 L 855.117188 595.421875 L 855.117188 610.476562 L 891.542969 610.476562 L 891.542969 627.554688 L 834.429688 627.554688 L 834.429688 547.332031 Z M 890.417969 547.332031 " fill-opacity="1" fill-rule="nonzero"/><path fill="#002813" d="M 971.253906 627.554688 L 943.148438 627.554688 L 916.390625 567.332031 L 916.390625 627.554688 L 896.605469 627.554688 L 896.605469 547.332031 L 926.507812 547.332031 L 951.46875 603.285156 L 951.46875 547.332031 L 971.253906 547.332031 Z M 971.253906 627.554688 " fill-opacity="1" fill-rule="nonzero"/><path fill="#002813" d="M 1043.746094 564.636719 L 1020.136719 564.636719 L 1020.136719 627.554688 L 999.449219 627.554688 L 999.449219 564.636719 L 975.617188 564.636719 L 975.617188 547.332031 L 1043.746094 547.332031 Z M 1043.746094 564.636719 " fill-opacity="1" fill-rule="nonzero"/><path fill="#002813" d="M 293.558594 681.980469 L 314.246094 681.980469 L 314.246094 762.207031 L 293.558594 762.207031 Z M 293.558594 681.980469 " fill-opacity="1" fill-rule="nonzero"/><path fill="#002813" d="M 395.777344 762.207031 L 367.667969 762.207031 L 340.910156 701.980469 L 340.910156 762.207031 L 321.125 762.207031 L 321.125 681.980469 L 351.03125 681.980469 L 375.988281 737.9375 L 375.988281 681.980469 L 395.777344 681.980469 Z M 395.777344 762.207031 " fill-opacity="1" fill-rule="nonzero"/><path fill="#002813" d="M 437.011719 680.410156 C 442.242188 680.410156 446.964844 681.082031 451.179688 682.429688 C 455.507812 683.667969 459.105469 685.464844 461.972656 687.824219 C 464.953125 690.070312 467.199219 692.9375 468.71875 696.363281 C 470.347656 699.847656 471.191406 703.667969 471.191406 707.824219 L 451.402344 707.824219 C 451.402344 706.195312 451.011719 704.679688 450.28125 703.328125 C 449.660156 701.871094 448.707031 700.632812 447.355469 699.734375 C 446.121094 698.722656 444.546875 697.9375 442.632812 697.488281 C 440.835938 696.925781 438.8125 696.589844 436.5625 696.589844 C 434.765625 696.589844 432.964844 696.8125 431.167969 697.261719 C 429.480469 697.597656 428.019531 698.105469 426.667969 698.835938 C 425.433594 699.621094 424.476562 700.519531 423.746094 701.53125 C 422.960938 702.597656 422.621094 703.777344 422.621094 705.128906 C 422.621094 706.476562 422.902344 707.597656 423.523438 708.5 C 424.253906 709.398438 425.320312 710.183594 426.667969 710.746094 C 428.019531 711.195312 429.707031 711.644531 431.839844 712.09375 C 433.921875 712.429688 436.394531 712.769531 439.261719 713.21875 L 442.183594 713.667969 C 443.816406 713.835938 445.558594 714.058594 447.355469 714.339844 C 449.15625 714.679688 450.953125 715.015625 452.753906 715.464844 C 454.550781 715.914062 456.238281 716.476562 457.925781 717.039062 C 459.722656 717.65625 461.355469 718.386719 462.871094 719.285156 C 464.5 720.070312 466.019531 721.027344 467.367188 722.207031 C 468.71875 723.273438 469.84375 724.566406 470.742188 726.027344 C 471.640625 727.542969 472.371094 729.285156 472.988281 731.195312 C 473.550781 733.160156 473.890625 735.351562 473.890625 737.710938 C 473.890625 741.925781 472.988281 745.6875 471.191406 748.945312 C 469.503906 752.261719 467.144531 755.015625 463.996094 757.261719 C 460.847656 759.394531 457.023438 761.027344 452.527344 762.207031 C 448.144531 763.214844 443.140625 763.777344 437.460938 763.777344 C 431.449219 763.777344 426.109375 763.160156 421.5 761.980469 C 417 760.632812 413.179688 758.777344 410.03125 756.363281 C 406.996094 754.003906 404.691406 751.082031 403.058594 747.597656 C 401.542969 744.003906 400.8125 740.070312 400.8125 735.6875 L 420.597656 735.6875 C 420.597656 737.488281 420.9375 739.171875 421.722656 740.632812 C 422.453125 742.148438 423.523438 743.441406 424.871094 744.453125 C 426.332031 745.519531 428.132812 746.363281 430.265625 746.925781 C 432.347656 747.375 434.765625 747.597656 437.460938 747.597656 C 439.710938 747.597656 441.792969 747.488281 443.757812 747.148438 C 445.671875 746.699219 447.355469 746.136719 448.707031 745.351562 C 450.054688 744.453125 451.066406 743.496094 451.855469 742.429688 C 452.753906 741.25 453.203125 739.902344 453.203125 738.386719 C 453.203125 736.925781 452.808594 735.6875 452.078125 734.789062 C 451.460938 733.890625 450.503906 733.160156 449.15625 732.542969 C 447.804688 731.980469 446.0625 731.53125 443.984375 731.195312 C 441.847656 730.746094 439.488281 730.40625 436.789062 730.070312 L 432.964844 729.398438 C 430.828125 729.117188 428.582031 728.835938 426.21875 728.496094 C 423.804688 728.046875 421.5 727.542969 419.25 726.925781 C 417 726.363281 414.808594 725.519531 412.730469 724.453125 C 410.59375 723.441406 408.738281 722.148438 407.105469 720.632812 C 405.589844 719.003906 404.296875 717.039062 403.285156 714.789062 C 402.386719 712.429688 401.9375 709.621094 401.9375 706.476562 C 401.9375 703.667969 402.273438 701.027344 403.058594 698.609375 C 403.960938 696.25 405.082031 694.117188 406.433594 692.320312 C 407.894531 690.410156 409.691406 688.667969 411.828125 687.148438 C 413.910156 685.691406 416.214844 684.398438 418.800781 683.332031 C 421.5 682.320312 424.308594 681.53125 427.34375 681.082031 C 430.324219 680.632812 433.527344 680.410156 437.011719 680.410156 Z M 437.011719 680.410156 " fill-opacity="1" fill-rule="nonzero"/><path fill="#002813" d="M 544.421875 699.285156 L 520.8125 699.285156 L 520.8125 762.207031 L 500.125 762.207031 L 500.125 699.285156 L 476.289062 699.285156 L 476.289062 681.980469 L 544.421875 681.980469 Z M 544.421875 699.285156 " fill-opacity="1" fill-rule="nonzero"/><path fill="#002813" d="M 548.769531 681.980469 L 569.453125 681.980469 L 569.453125 762.207031 L 548.769531 762.207031 Z M 548.769531 681.980469 " fill-opacity="1" fill-rule="nonzero"/><path fill="#002813" d="M 641.988281 699.285156 L 618.378906 699.285156 L 618.378906 762.207031 L 597.695312 762.207031 L 597.695312 699.285156 L 573.859375 699.285156 L 573.859375 681.980469 L 641.988281 681.980469 Z M 641.988281 699.285156 " fill-opacity="1" fill-rule="nonzero"/><path fill="#002813" d="M 646.335938 681.980469 L 667.023438 681.980469 L 667.023438 728.496094 C 667.023438 731.644531 667.304688 734.339844 667.921875 736.585938 C 668.65625 738.835938 669.609375 740.746094 670.847656 742.207031 C 672.027344 743.722656 673.546875 744.847656 675.34375 745.578125 C 677.253906 746.195312 679.449219 746.476562 681.863281 746.476562 C 684.226562 746.476562 686.363281 746.195312 688.160156 745.578125 C 689.960938 744.847656 691.421875 743.722656 692.65625 742.207031 C 694.007812 740.746094 694.960938 738.835938 695.582031 736.585938 C 696.144531 734.339844 696.480469 731.644531 696.480469 728.496094 L 696.480469 681.980469 L 717.167969 681.980469 L 717.167969 730.296875 C 717.167969 735.6875 716.265625 740.519531 714.46875 744.675781 C 712.78125 748.890625 710.421875 752.429688 707.273438 755.238281 C 704.125 758.105469 700.359375 760.296875 696.03125 761.757812 C 691.644531 763.105469 686.925781 763.777344 681.863281 763.777344 C 678.378906 763.777344 675.117188 763.441406 671.972656 762.878906 C 668.824219 762.261719 665.898438 761.304688 663.203125 759.957031 C 660.617188 758.609375 658.3125 757.035156 656.230469 755.238281 C 654.09375 753.328125 652.296875 751.136719 650.835938 748.722656 C 649.484375 746.195312 648.359375 743.441406 647.460938 740.40625 C 646.675781 737.261719 646.335938 733.890625 646.335938 730.296875 Z M 646.335938 681.980469 " fill-opacity="1" fill-rule="nonzero"/><path fill="#002813" d="M 789.691406 699.285156 L 766.082031 699.285156 L 766.082031 762.207031 L 745.394531 762.207031 L 745.394531 699.285156 L 721.5625 699.285156 L 721.5625 681.980469 L 789.691406 681.980469 Z M 789.691406 699.285156 " fill-opacity="1" fill-rule="nonzero"/><path fill="#002813" d="M 850.027344 681.980469 L 850.027344 699.285156 L 814.726562 699.285156 L 814.726562 714.117188 L 846.878906 714.117188 L 846.878906 730.070312 L 814.726562 730.070312 L 814.726562 745.128906 L 851.152344 745.128906 L 851.152344 762.207031 L 794.039062 762.207031 L 794.039062 681.980469 Z M 850.027344 681.980469 " fill-opacity="1" fill-rule="nonzero"/><g clip-path="url(#e3f74c1076)"><path fill="#002813" d="M 464.449219 265.742188 L 647.3125 265.742188 C 663.726562 265.742188 677.105469 279.167969 677.105469 295.515625 L 677.105469 478.265625 C 677.105469 494.667969 663.726562 508.097656 647.3125 508.097656 L 464.449219 508.097656 C 448.09375 508.097656 434.65625 494.667969 434.65625 478.265625 L 434.65625 295.515625 C 434.65625 279.167969 448.09375 265.742188 464.449219 265.742188 Z M 464.449219 265.742188 " fill-opacity="1" fill-rule="evenodd"/></g><g clip-path="url(#c18f257fba)"><g clip-path="url(#5d93d73b26)"><path fill="#ffd700" d="M 574.515625 365.625 C 568.558594 361.355469 566.871094 355.175781 561.304688 348.042969 C 556.640625 341.976562 551.074219 338.210938 547.816406 334.335938 C 544.667969 330.570312 540.394531 323.605469 537.527344 316.917969 L 532.355469 302.539062 C 530.21875 298.15625 531.792969 300.347656 528.984375 297.257812 C 512.792969 348.378906 563.667969 331.582031 556.585938 387.253906 C 564.285156 386.636719 567.207031 386.917969 573.84375 382.144531 C 588.402344 371.75 595.089844 349.390625 589.527344 328.097656 C 586.492188 316.527344 578.902344 304.617188 573.671875 296.976562 C 565.914062 285.738281 564.34375 279.558594 557.425781 267.3125 C 536.628906 300.796875 592.898438 296.640625 574.515625 365.625 Z M 574.515625 365.625 " fill-opacity="1" fill-rule="evenodd"/></g></g><g clip-path="url(#a04fe4582c)"><g clip-path="url(#db35246226)"><path fill="#ffd700" d="M 482.832031 399.785156 L 628.933594 399.785156 L 628.933594 411.972656 L 482.832031 411.972656 Z M 482.832031 399.785156 " fill-opacity="1" fill-rule="evenodd"/></g></g><g clip-path="url(#2535783f92)"><g clip-path="url(#e063589948)"><path fill="#ffd700" d="M 520.832031 348.097656 C 519.820312 350.234375 518.921875 355.457031 519.652344 358.828125 C 520.382812 362.144531 522.800781 363.660156 526.511719 367.03125 C 530.277344 370.457031 535.28125 375.738281 537.867188 379.222656 C 540.394531 382.703125 540.507812 384.390625 540.730469 386.074219 C 540.957031 387.761719 541.351562 389.445312 542.925781 388.941406 C 544.5 388.433594 547.308594 385.683594 548.152344 382.03125 C 549.050781 378.378906 548.039062 373.714844 543.710938 367.816406 C 539.382812 361.863281 531.738281 354.726562 527.351562 350.738281 C 522.96875 346.695312 521.902344 345.90625 520.832031 348.097656 Z M 520.832031 348.097656 " fill-opacity="1" fill-rule="evenodd"/></g></g><g clip-path="url(#8b2476867c)"><g clip-path="url(#c440667878)"><path fill="#ffd700" d="M 512.625 424.558594 C 516.785156 424.558594 523.136719 424.558594 526.679688 424.613281 C 530.164062 424.671875 530.78125 424.78125 532.019531 425.121094 C 533.253906 425.457031 535.054688 426.074219 536.796875 426.804688 C 538.484375 427.535156 540.058594 428.433594 541.574219 429.613281 C 543.09375 430.851562 544.554688 432.3125 545.679688 433.714844 C 546.804688 435.0625 547.589844 436.355469 548.207031 437.761719 C 548.882812 439.222656 549.445312 440.792969 549.839844 442.703125 C 550.289062 444.671875 550.570312 446.972656 550.683594 459.558594 C 550.851562 472.140625 550.851562 495.0625 550.90625 506.46875 C 550.964844 517.929688 551.019531 517.871094 549.050781 517.816406 C 547.085938 517.816406 543.035156 517.816406 541.070312 517.476562 C 539.160156 517.140625 539.328125 516.410156 539.382812 504.949219 C 539.4375 493.546875 539.382812 471.300781 539.269531 459.78125 C 539.101562 448.210938 538.878906 447.367188 538.371094 446.242188 C 537.867188 445.0625 537.078125 443.601562 536.011719 442.199219 C 534.941406 440.851562 533.535156 439.671875 531.960938 438.660156 C 530.390625 437.703125 528.589844 437.03125 526.398438 436.582031 C 524.148438 436.132812 521.449219 435.960938 518.808594 435.851562 C 516.109375 435.683594 513.46875 435.683594 511.21875 435.683594 C 508.914062 435.625 507.003906 435.683594 505.992188 435.625 C 504.980469 435.570312 504.867188 435.457031 504.753906 433.492188 C 504.699219 431.523438 504.699219 427.761719 504.699219 425.90625 C 504.644531 424.109375 504.53125 424.222656 505.484375 424.332031 C 506.441406 424.445312 508.464844 424.503906 512.625 424.558594 Z M 512.625 424.558594 " fill-opacity="1" fill-rule="evenodd"/></g></g><g clip-path="url(#ae00e54b14)"><g clip-path="url(#bb4f5509d7)"><path fill="#ffd700" d="M 599.644531 425.234375 C 595.429688 425.289062 589.074219 425.289062 585.589844 425.34375 C 582.050781 425.402344 581.488281 425.511719 580.25 425.851562 C 579.015625 426.1875 577.160156 426.75 575.417969 427.480469 C 573.730469 428.210938 572.15625 429.164062 570.636719 430.34375 C 569.121094 431.523438 567.660156 433.042969 566.535156 434.390625 C 565.410156 435.792969 564.679688 437.03125 564.003906 438.492188 C 563.332031 439.894531 562.769531 441.46875 562.375 443.433594 C 561.925781 445.34375 561.644531 447.648438 561.53125 460.230469 C 561.363281 472.871094 561.363281 495.738281 561.363281 507.199219 C 561.304688 518.601562 561.195312 518.546875 563.160156 518.546875 C 565.128906 518.488281 569.234375 518.488281 571.144531 518.152344 C 573.113281 517.816406 572.886719 517.140625 572.832031 505.679688 C 572.773438 494.21875 572.832031 472.03125 573 460.457031 C 573.113281 448.941406 573.335938 448.097656 573.84375 446.917969 C 574.347656 445.738281 575.136719 444.277344 576.203125 442.929688 C 577.328125 441.582031 578.675781 440.34375 580.25 439.390625 C 581.824219 438.433594 583.625 437.703125 585.871094 437.253906 C 588.0625 436.804688 590.761719 436.636719 593.460938 436.523438 C 596.101562 436.410156 598.746094 436.355469 601.050781 436.355469 C 603.296875 436.355469 605.210938 436.355469 606.222656 436.355469 C 607.234375 436.300781 607.402344 436.132812 607.457031 434.164062 C 607.515625 432.199219 607.515625 428.433594 607.570312 426.636719 C 607.570312 424.78125 607.683594 424.953125 606.726562 425.007812 C 605.773438 425.121094 603.804688 425.175781 599.589844 425.234375 Z M 599.644531 425.234375 " fill-opacity="1" fill-rule="evenodd"/></g></g></svg>