<?xml version="1.0" encoding="UTF-8"?>
<svg id="Layer_2" data-name="Layer 2" xmlns="http://www.w3.org/2000/svg" viewBox="0 0 30.74 30.73">
  <defs>
    <style>
      .cls-1 {
        fill: #fff;
        stroke-width: 0px;
      }
    </style>
  </defs>
  <g id="Layer_1-2" data-name="Layer 1">
    <g>
      <g>
        <path class="cls-1" d="M4.67,9.74l-2.05-2.97.52-.73,3.46,1-.39.54-.8-.25-.86,1.19.49.69-.38.53ZM4.88,7.17l-1.65-.51,1.01,1.41.65-.9Z"/>
        <path class="cls-1" d="M6.93,3.15l-1.3,1.06.58.71,1.19-.98.34.42-1.19.98.86,1.05-.48.39-2.13-2.6,1.78-1.46.35.42Z"/>
        <path class="cls-1" d="M9.14,5.04l-1.4-3.09,1.51-.69c.65-.3,1.25-.12,1.5.43.22.49.03.96-.48,1.21.25-.09.51,0,.78.23l.77.68-.63.28-.78-.68c-.22-.19-.37-.21-.68-.07l-.56.25.53,1.17-.57.26ZM9.83,2.73c.36-.17.5-.44.36-.75-.13-.3-.42-.37-.79-.2l-.87.4.43.94.87-.4Z"/>
        <path class="cls-1" d="M13,3.62l-.61.14-.75-3.3.61-.14.75,3.3Z"/>
        <path class="cls-1" d="M16.65,3.38h-.93s-1.55-2.85-1.55-2.85l.04,2.89h-.6s-.05-3.37-.05-3.37h1s1.48,2.71,1.48,2.71l-.04-2.74h.6s.05,3.37.05,3.37Z"/>
        <path class="cls-1" d="M18.09.18l1.13.31c1,.28,1.48,1.11,1.21,2.09-.27.99-1.12,1.45-2.12,1.17l-1.13-.31.9-3.26ZM18.46,3.22c.67.19,1.18-.11,1.37-.8.19-.7-.09-1.21-.76-1.4l-.53-.15-.61,2.2.53.15Z"/>
        <path class="cls-1" d="M24.16,2.76l-.28.47-1.44-.86-.45.75,1.32.79-.27.46-1.32-.79-.44.75,1.48.88-.28.47-2.01-1.2,1.72-2.89,1.97,1.18Z"/>
        <path class="cls-1" d="M25.35,3.6l1.11,1.14c.52.53.55,1.22.09,1.67-.47.46-1.16.41-1.68-.11l-.68-.69-.83.82-.44-.45,2.42-2.38ZM25.23,5.89c.29.29.63.33.88.08.25-.25.23-.58-.06-.87l-.66-.67-.82.8.65.66Z"/>
        <path class="cls-1" d="M29.26,8.76l-.48.27-.83-1.47-.76.43.77,1.35-.46.26-.77-1.35-.76.43.86,1.51-.48.27-1.17-2.05,2.94-1.67,1.14,2.01Z"/>
        <path class="cls-1" d="M27.32,13.87l-.23-.91,2.43-2.19-2.8.72-.15-.58,3.28-.84.25.97-2.3,2.09,2.66-.68.15.58-3.28.84Z"/>
        <path class="cls-1" d="M30.74,14.6l-.06,1.17c-.05,1.03-.76,1.69-1.78,1.64-1.02-.05-1.65-.78-1.6-1.81l.06-1.17,3.38.17ZM27.85,15.62c-.04.7.36,1.13,1.08,1.16.72.04,1.16-.35,1.2-1.05l.03-.55-2.28-.12-.03.55Z"/>
        <path class="cls-1" d="M29.64,21.12l-.53-.17.51-1.62-.84-.27-.47,1.49-.51-.16.47-1.49-.84-.27-.53,1.66-.53-.17.72-2.26,3.25,1.03-.7,2.22Z"/>
        <path class="cls-1" d="M24.52,23.13l.51-.78,3.26.32-2.42-1.6.33-.5,2.84,1.87-.56.84-3.1-.31,2.3,1.52-.33.5-2.84-1.87Z"/>
        <path class="cls-1" d="M23.97,27.41l.83-.72-1.84-2.14.47-.41,1.84,2.14.83-.72.36.42-2.13,1.84-.36-.41Z"/>
        <path class="cls-1" d="M18.51,26.87l.59-.18.97,3.24-.6.18-.97-3.24Z"/>
        <path class="cls-1" d="M14.88,27.38l.92-.08,1.76,2.73-.26-2.87.59-.05.3,3.35-1,.09-1.68-2.6.24,2.72-.6.05-.3-3.35Z"/>
        <path class="cls-1" d="M11.15,29.05l.59.12c-.07.35.19.64.64.74.38.08.79,0,.86-.33.06-.3-.22-.41-.72-.59l-.15-.05c-.54-.2-1.23-.46-1.07-1.23.15-.69.8-.92,1.65-.75.93.19,1.38.72,1.23,1.43l-.59-.12c.08-.38-.21-.67-.74-.79-.46-.1-.87,0-.94.35-.07.33.22.44.68.61l.19.07c.54.2,1.23.45,1.08,1.18-.14.68-.82.91-1.59.75-.82-.17-1.26-.7-1.12-1.38Z"/>
        <path class="cls-1" d="M7.45,27.89l.98.5,1.27-2.53.55.28-1.27,2.53.98.49-.25.49-2.51-1.27.25-.49Z"/>
        <path class="cls-1" d="M7.85,24.64l.49.37-2.03,2.69-.49-.38,2.03-2.69Z"/>
        <path class="cls-1" d="M3.44,24.2l.74.81,2.09-1.9.42.46-2.09,1.9.74.81-.41.37-1.89-2.09.41-.37Z"/>
        <path class="cls-1" d="M2.25,23.38l-.27-.56,1.76-.85c.55-.27.71-.68.48-1.16-.23-.48-.66-.61-1.21-.34l-1.76.85-.27-.56,1.78-.87c.81-.39,1.57-.11,1.95.67.38.79.13,1.55-.68,1.95l-1.78.87Z"/>
        <path class="cls-1" d="M.56,16.62l.2,1.08,2.8-.51.11.62-2.8.51.2,1.09-.54.1L.02,16.72l.54-.1Z"/>
        <path class="cls-1" d="M.16,13.13l.55.04-.12,1.68.88.06.11-1.54.53.04-.11,1.54.87.06.12-1.73.55.04-.16,2.34-3.37-.23.16-2.3Z"/>
      </g>
      <circle class="cls-1" cx="2.45" cy="10.64" r=".5"/>
      <circle class="cls-1" cx="21.77" cy="27.4" r=".5"/>
    </g>
  </g>
</svg>