<?xml version="1.0" encoding="UTF-8"?>
<svg id="Layer_2" data-name="Layer 2" xmlns="http://www.w3.org/2000/svg" viewBox="0 0 36.97 36.97">
  <defs>
    <style>
      .cls-1 {
        fill: #fff;
        font-family: Nohemi-Medium, Nohemi;
        font-size: 4.8px;
        font-weight: 500;
      }
    </style>
  </defs>
  <g id="Layer_1-2" data-name="Layer 1">
    <text class="cls-1" transform="translate(25.28 8.31) rotate(41.78)"><tspan x="0" y="0">A</tspan></text>
    <text class="cls-1" transform="translate(27.97 10.84) rotate(57.27)"><tspan x="0" y="0">F</tspan></text>
    <text class="cls-1" transform="translate(29.54 13.28) rotate(72.42)"><tspan x="0" y="0">R</tspan></text>
    <text class="cls-1" transform="translate(30.48 16.73) rotate(84.06)"><tspan x="0" y="0">I</tspan></text>
    <text class="cls-1" transform="translate(30.72 18.05) rotate(96.13)"><tspan x="0" y="0">N</tspan></text>
    <text class="cls-1" transform="translate(30.27 21.74) rotate(113.12)"><tspan x="0" y="0">D</tspan></text>
    <text class="cls-1" transform="translate(28.8 24.98) rotate(128.59)"><tspan x="0" y="0">E</tspan></text>
    <text class="cls-1" transform="translate(26.96 27.29) rotate(143.67)"><tspan x="0" y="0">P</tspan></text>
    <text class="cls-1" transform="translate(24.14 29.28) rotate(158.6)"><tspan x="0" y="0">E</tspan></text>
    <text class="cls-1" transform="translate(21.4 30.37) rotate(174.41)"><tspan x="0" y="0">N</tspan></text>
    <text class="cls-1" transform="translate(17.69 30.68) rotate(-168.59)"><tspan x="0" y="0">D</tspan></text>
    <text class="cls-1" transform="translate(14.22 29.9) rotate(-153.24)"><tspan x="0" y="0">E</tspan></text>
    <text class="cls-1" transform="translate(11.58 28.59) rotate(-137.46)"><tspan x="0" y="0">N</tspan></text>
    <text class="cls-1" transform="translate(8.89 26.01) rotate(-121.19)"><tspan x="0" y="0">T</tspan></text>
    <text class="cls-1" transform="translate(7.3 23.15) rotate(-110.09)"><tspan x="0" y="0"> </tspan></text>
    <text class="cls-1" transform="translate(6.81 21.74) rotate(-103.02)"><tspan x="0" y="0"> </tspan></text>
    <text class="cls-1" transform="translate(6.5 20.31) rotate(-96.28)"><tspan x="0" y="0">I</tspan></text>
    <text class="cls-1" transform="translate(6.26 19) rotate(-84.23)"><tspan x="0" y="0">N</tspan></text>
    <text class="cls-1" transform="translate(6.7 15.29) rotate(-67.43)"><tspan x="0" y="0">S</tspan></text>
    <text class="cls-1" transform="translate(8.04 12.19) rotate(-51.95)"><tspan x="0" y="0">T</tspan></text>
    <text class="cls-1" transform="translate(10.16 9.68) rotate(-41.02)"><tspan x="0" y="0">I</tspan></text>
    <text class="cls-1" transform="translate(11.14 8.75) rotate(-30.17)"><tspan x="0" y="0">T</tspan></text>
    <text class="cls-1" transform="translate(13.93 7.14) rotate(-14.07)"><tspan x="0" y="0">U</tspan></text>
    <text class="cls-1" transform="translate(17.42 6.33) rotate(1.97)"><tspan x="0" y="0">T</tspan></text>
    <text class="cls-1" transform="translate(20.66 6.49) rotate(16.47)"><tspan x="0" y="0">E</tspan></text>
  </g>
</svg>