<svg width="46" height="46" viewBox="0 0 46 46" fill="none" xmlns="http://www.w3.org/2000/svg">
<g id="Asset 14" clip-path="url(#clip0_427_612)">
<g id="objects">
<g id="Group">
<path id="Vector" d="M11.1033 0H34.8967C41.0277 0 46 4.97232 46 11.1033V34.8967C46 41.0277 41.0277 46 34.8967 46H11.1033C4.97232 46 0 41.0277 0 34.8967V11.1033C0 4.97232 4.97232 0 11.1033 0ZM3.96593 34.1022C3.96593 38.4808 7.51917 42.0341 11.8978 42.0341H34.1044C38.483 42.0341 42.0363 38.4808 42.0363 34.1022V11.8956C42.0363 7.51696 38.483 3.96373 34.1044 3.96373H11.8978C7.51917 3.96373 3.96593 7.51696 3.96593 11.8956V34.1022Z" fill="#FFD5AF"/>
<path id="Vector_2" d="M22.9767 11.1033C29.5425 11.1033 34.8723 16.4331 34.8723 22.9989C34.8723 29.5646 29.5425 34.8945 22.9767 34.8945C16.411 34.8945 11.0811 29.5646 11.0811 22.9989C11.0811 16.4331 16.411 11.1033 22.9767 11.1033ZM22.9767 30.9307C27.3465 30.9307 30.9086 27.3687 30.9086 22.9989C30.9086 18.6291 27.3465 15.067 22.9767 15.067C18.6069 15.067 15.0448 18.6291 15.0448 22.9989C15.0448 27.3687 18.6069 30.9307 22.9767 30.9307Z" fill="#FFD5AF"/>
<path id="Vector_3" d="M35.9632 7.93237C37.2741 7.93237 38.3423 9.00055 38.3423 10.3115C38.3423 11.6224 37.2741 12.6906 35.9632 12.6906C34.6522 12.6906 33.584 11.6224 33.584 10.3115C33.584 9.00055 34.6522 7.93237 35.9632 7.93237Z" fill="#FFD5AF"/>
</g>
</g>
</g>
<defs>
<clipPath id="clip0_427_612">
<rect width="46" height="46" fill="white" transform="matrix(-1 0 0 1 46 0)"/>
</clipPath>
</defs>
</svg>
