<svg width="166" height="166" viewBox="0 0 166 166" fill="none" xmlns="http://www.w3.org/2000/svg">
<g opacity="0.8">
<circle cx="82.7162" cy="82.7165" r="82.7162" transform="rotate(-180 82.7162 82.7165)" fill="#F1F1F1"/>
<path d="M40.6506 80.2415C39.6743 81.2178 39.6743 82.8007 40.6506 83.777L56.5605 99.6869C57.5368 100.663 59.1198 100.663 60.0961 99.6869C61.0724 98.7106 61.0724 97.1277 60.0961 96.1514L45.9539 82.0093L60.0961 67.8671C61.0724 66.8908 61.0724 65.3079 60.0961 64.3316C59.1198 63.3553 57.5369 63.3553 56.5605 64.3316L40.6506 80.2415ZM80.5951 79.5093L42.4184 79.5093L42.4184 84.5093L80.5951 84.5093L80.5951 79.5093Z" fill="#8A4132"/>
<path d="M79.1811 82.0093H127.255" stroke="#8A4132" stroke-width="5" stroke-dasharray="9 5"/>
</g>
</svg>
