<svg width="50" height="51" viewBox="0 0 50 51" fill="none" xmlns="http://www.w3.org/2000/svg">
<g id="Asset 18 1" clip-path="url(#clip0_427_620)">
<g id="objects">
<g id="Group">
<path id="Vector" d="M6.66684 13.305C10.3488 13.305 13.3337 10.3266 13.3337 6.65251C13.3337 2.97843 10.3488 0 6.66684 0C2.98485 0 0 2.97843 0 6.65251C0 10.3266 2.98485 13.305 6.66684 13.305Z" fill="#FFD5AF"/>
<path id="Vector_2" d="M11.7237 17.7401H1.60747C1.33265 17.7401 1.10986 17.9624 1.10986 18.2366V50.5035C1.10986 50.7777 1.33265 51 1.60747 51H11.7237C11.9985 51 12.2213 50.7777 12.2213 50.5035V18.2366C12.2213 17.9624 11.9985 17.7401 11.7237 17.7401Z" fill="#FFD5AF"/>
<path id="Vector_3" d="M50.0001 29.935V48.7825C50.0001 50.0018 48.9996 51 47.7778 51H41.1109C39.8891 51 38.8887 50.0018 38.8887 48.7825V33.26C38.8887 30.2002 36.4006 27.7175 33.3343 27.7175C30.2679 27.7175 27.7799 30.2002 27.7799 33.26V48.7825C27.7799 50.0018 26.7794 51 25.5576 51H18.8907C17.6689 51 16.6685 50.0018 16.6685 48.7825V19.955C16.6685 18.7357 17.6689 17.7375 18.8907 17.7375H25.5576C26.7794 17.7375 27.7799 18.7357 27.7799 19.955V21.3744C30.0021 18.5018 33.6808 16.63 37.7788 16.63C43.9116 16.63 50.0001 21.065 50.0001 29.935Z" fill="#FFD5AF"/>
</g>
</g>
</g>
<defs>
<clipPath id="clip0_427_620">
<rect width="50" height="51" fill="white"/>
</clipPath>
</defs>
</svg>
