<svg width="1681" height="291" viewBox="0 0 1681 291" fill="none" xmlns="http://www.w3.org/2000/svg">
<path d="M393.863 131H369.113L406.088 23.75H439.313L475.763 131H450.525L443.325 107.412H401.138L393.863 131ZM407.138 88.0625H437.438L422.4 38.6375L407.138 88.0625ZM555.209 23.75V43.925H504.809V69.3875H550.859V88.9625H504.809V131H481.109V23.75H555.209ZM586.693 131H562.993V23.7125H616.056C640.131 23.7125 654.793 36.35 654.793 56.15C654.793 73.475 643.131 84.8375 625.056 85.4C633.531 86 640.093 91.775 644.781 102.275L657.681 131H631.393L618.381 102.35C614.556 93.875 611.106 91.55 602.256 91.55H586.693V131ZM586.693 72.425H613.318C624.531 72.425 631.093 66.9875 631.093 57.6125C631.093 48.3875 624.718 43.2875 613.281 43.2875H586.693V72.425ZM689.525 23.75V131H665.825V23.75H689.525ZM798.169 23.75V131H764.531L722.681 44.9375V131H699.956V23.75H735.806L775.444 104.712V23.75H798.169ZM808.501 131V23.75H847.614C879.939 23.75 901.876 44.8625 901.876 77.375C901.876 109.887 879.939 131 847.614 131H808.501ZM831.976 110.675H847.089C866.701 110.675 878.026 98.7875 878.026 77.375C878.026 55.9625 866.701 44.075 847.089 44.075H831.976V110.675ZM911.04 23.75H985.14V43.925H934.74V67.8875H980.79V87.0125H934.74V110.825H986.49V131H911.04V23.75ZM994.243 131V23.75H1045.02C1069.24 23.75 1086.01 38.4125 1086.01 59.525C1086.01 80.675 1069.17 95.4125 1045.02 95.4125H1017.94V131H994.243ZM1017.94 75.8375H1043.74C1055.29 75.8375 1062.31 69.6875 1062.31 59.525C1062.31 49.4375 1055.37 43.325 1043.93 43.325H1017.94V75.8375ZM1094 23.75H1168.1V43.925H1117.7V67.8875H1163.75V87.0125H1117.7V110.825H1169.45V131H1094V23.75ZM1275.41 23.75V131H1241.78L1199.93 44.9375V131H1177.2V23.75H1213.05L1252.69 104.712V23.75H1275.41ZM1285.75 131V23.75H1324.86C1357.18 23.75 1379.12 44.8625 1379.12 77.375C1379.12 109.887 1357.18 131 1324.86 131H1285.75ZM1309.22 110.675H1324.33C1343.95 110.675 1355.27 98.7875 1355.27 77.375C1355.27 55.9625 1343.95 44.075 1324.33 44.075H1309.22V110.675ZM1388.29 23.75H1462.39V43.925H1411.99V67.8875H1458.04V87.0125H1411.99V110.825H1463.74V131H1388.29V23.75ZM1569.7 23.75V131H1536.06L1494.21 44.9375V131H1471.49V23.75H1507.34L1546.98 104.712V23.75H1569.7ZM1666.4 23.75V43.925H1633.1V131H1609.4V43.925H1576.1V23.75H1666.4Z" fill="white"/>
<path d="M397.875 164.75V272H374.175V164.75H397.875ZM506.518 164.75V272H472.881L431.031 185.937V272H408.306V164.75H444.156L483.793 245.712V164.75H506.518ZM561.326 162.537C588.851 162.537 605.988 176.15 605.988 198.575H583.263C583.263 188.262 574.376 181.812 561.026 181.812C549.851 181.812 539.388 186.275 539.388 195.312C539.388 203.862 547.788 205.25 563.501 207.575L567.888 208.212C585.813 210.875 609.588 214.4 609.588 239.862C609.588 262.4 590.988 274.25 562.301 274.25C531.401 274.25 514.151 260.487 514.151 237.2H536.876C536.876 248.337 546.513 254.975 562.151 254.975C575.463 254.975 586.113 250.137 586.113 240.35C586.113 230.975 577.451 229.662 562.751 227.6L557.088 226.775C539.426 224.3 515.876 221.075 515.876 196.662C515.876 174.387 535.601 162.537 561.326 162.537ZM701.651 164.75V184.925H668.351V272H644.651V184.925H611.351V164.75H701.651ZM731.713 164.75V272H708.013V164.75H731.713ZM828.506 164.75V184.925H795.206V272H771.506V184.925H738.206V164.75H828.506ZM834.868 228.5V164.75H858.568V226.85C858.568 245.112 866.781 253.925 881.668 253.925C896.518 253.925 904.768 245.112 904.768 226.85V164.75H928.468V228.5C928.468 257.375 909.418 274.25 881.668 274.25C853.881 274.25 834.868 257.375 834.868 228.5ZM1025.23 164.75V184.925H991.935V272H968.235V184.925H934.935V164.75H1025.23ZM1031.6 164.75H1105.7V184.925H1055.3V208.887H1101.35V228.012H1055.3V251.825H1107.05V272H1031.6V164.75Z" fill="white"/>
<path d="M236.934 0H53.1359C23.7898 0 0 23.7898 0 53.1359V236.934C0 266.28 23.7898 290.07 53.1359 290.07H236.934C266.28 290.07 290.07 266.28 290.07 236.934V53.1359C290.07 23.7898 266.28 0 236.934 0Z" fill="#8A4132"/>
<path d="M103.183 95.3441C103.183 95.3441 100.807 101.125 100.728 101.6C99.7777 105.955 99.936 111.895 102.866 115.458C103.262 116.012 103.816 116.408 104.291 116.884C108.884 120.922 113.557 124.882 117.912 129.316C120.367 131.85 123.059 134.384 124.801 137.473C125.673 138.977 126.306 140.561 126.86 142.224C127.415 143.887 127.494 146.5 128.207 148.005C128.207 148.005 130.107 145.154 130.266 144.917C133.196 140.799 133.829 135.493 133.354 130.583C132.72 124.486 127.969 119.893 123.851 115.775C116.962 108.965 110.151 102.154 103.341 95.2649L103.183 95.3441Z" fill="white"/>
<path d="M110.707 38.2481C110.707 38.8024 108.094 41.574 107.619 42.2075C106.669 43.7121 105.798 45.2959 105.085 46.9589C103.58 50.364 102.709 54.0859 102.472 57.8078C101.997 65.4892 104.214 73.4081 108.886 79.5057C114.904 87.2662 122.111 93.8389 128.763 101.124C136.365 109.518 145.63 116.645 145.947 128.999C146.105 135.413 144.68 141.748 143.175 148.004C146.026 148.004 148.481 148.321 151.331 147.767C154.024 147.212 156.637 146.341 159.171 145.312C164.319 143.095 169.07 139.927 173.188 136.047C189.738 120.209 193.698 97.64 186.412 76.3381C181.978 63.5886 174.455 52.1062 166.457 41.2573C157.667 29.3789 147.847 17.263 145.471 2.69214C140.879 9.10646 137.79 17.1046 139.057 24.8651C140.403 33.5759 146.739 39.9902 152.44 46.2462C158.854 53.294 164.873 61.5297 169.228 70.003C175.643 82.4357 176.91 96.0562 171.921 109.202C170.02 114.349 166.932 120.13 162.497 123.614C160.517 118.942 158.775 114.111 156.004 109.914C153.39 106.034 150.223 102.391 146.976 98.9862C140.245 92.0175 132.88 85.6824 126.862 78.0802C117.834 66.7562 112.212 52.7397 110.866 38.3273L110.707 38.2481Z" fill="white"/>
<path d="M60.1035 162.021V176.592H229.964V161.705L60.1035 162.021Z" fill="white"/>
<path d="M84.8131 190.608H102.947C106.907 190.608 111.025 190.133 114.826 190.925C119.577 191.954 124.17 194.092 127.892 197.26C131.614 200.348 134.544 204.466 136.365 208.98C138.424 214.286 138.266 219.512 138.266 225.055C138.266 237.963 138.266 250.871 138.266 263.779C138.266 272.569 138.266 281.359 138.266 290.07H124.804C124.804 290.07 124.804 232.341 124.804 227.51V224.422C124.804 219.275 123.774 214.523 120.211 210.643C117.36 207.475 113.004 204.783 108.728 204.229C105.798 203.833 102.631 204.229 99.7006 204.229H84.7339V190.608H84.8131Z" fill="white"/>
<path d="M205.257 190.608C199.238 190.608 193.22 190.608 187.122 190.608C183.163 190.608 179.045 190.133 175.244 190.925C170.493 191.954 165.9 194.092 162.178 197.26C158.456 200.348 155.526 204.466 153.705 208.98C151.646 214.286 151.804 219.512 151.804 225.055C151.804 237.963 151.804 250.871 151.804 263.779C151.804 272.569 151.804 281.359 151.804 290.07H165.266C165.266 290.07 165.266 232.341 165.266 227.51V224.422C165.266 219.275 166.296 214.523 169.859 210.643C172.71 207.475 177.065 204.783 181.342 204.229C184.272 203.833 187.439 204.229 190.369 204.229H205.336V190.608H205.257Z" fill="white"/>
</svg>
