<svg width="1824" height="291" viewBox="0 0 1824 291" fill="none" xmlns="http://www.w3.org/2000/svg">
<path d="M395.52 128H369.12L408.56 13.6H444L482.88 128H455.96L448.28 102.84H403.28L395.52 128ZM409.68 82.2H442L425.96 29.48L409.68 82.2ZM567.623 13.6V35.12H513.863V62.28H562.983V83.16H513.863V128H488.583V13.6H567.623ZM601.206 128H575.926V13.56H632.526C658.206 13.56 673.846 27.04 673.846 48.16C673.846 66.64 661.406 78.76 642.126 79.36C651.166 80 658.166 86.16 663.166 97.36L676.926 128H648.886L635.006 97.44C630.926 88.4 627.246 85.92 617.806 85.92H601.206V128ZM601.206 65.52H629.606C641.566 65.52 648.566 59.72 648.566 49.72C648.566 39.88 641.766 34.44 629.566 34.44H601.206V65.52ZM710.894 13.6V128H685.614V13.6H710.894ZM826.78 13.6V128H790.9L746.26 36.2V128H722.02V13.6H760.26L802.54 99.96V13.6H826.78ZM837.801 128V13.6H879.521C914.001 13.6 937.401 36.12 937.401 70.8C937.401 105.48 914.001 128 879.521 128H837.801ZM862.841 106.32H878.961C899.881 106.32 911.961 93.64 911.961 70.8C911.961 47.96 899.881 35.28 878.961 35.28H862.841V106.32ZM947.176 13.6H1026.22V35.12H972.456V60.68H1021.58V81.08H972.456V106.48H1027.66V128H947.176V13.6ZM1035.93 128V13.6H1090.09C1115.93 13.6 1133.81 29.24 1133.81 51.76C1133.81 74.32 1115.85 90.04 1090.09 90.04H1061.21V128H1035.93ZM1061.21 69.16H1088.73C1101.05 69.16 1108.53 62.6 1108.53 51.76C1108.53 41 1101.13 34.48 1088.93 34.48H1061.21V69.16ZM1142.33 13.6H1221.37V35.12H1167.61V60.68H1216.73V81.08H1167.61V106.48H1222.81V128H1142.33V13.6ZM1335.84 13.6V128H1299.96L1255.32 36.2V128H1231.08V13.6H1269.32L1311.6 99.96V13.6H1335.84ZM1346.86 128V13.6H1388.58C1423.06 13.6 1446.46 36.12 1446.46 70.8C1446.46 105.48 1423.06 128 1388.58 128H1346.86ZM1371.9 106.32H1388.02C1408.94 106.32 1421.02 93.64 1421.02 70.8C1421.02 47.96 1408.94 35.28 1388.02 35.28H1371.9V106.32ZM1456.24 13.6H1535.28V35.12H1481.52V60.68H1530.64V81.08H1481.52V106.48H1536.72V128H1456.24V13.6ZM1649.75 13.6V128H1613.87L1569.23 36.2V128H1544.99V13.6H1583.23L1625.51 99.96V13.6H1649.75ZM1752.89 13.6V35.12H1717.37V128H1692.09V35.12H1656.57V13.6H1752.89Z" fill="#0E102A"/>
<path d="M399.8 165.6V280H374.52V165.6H399.8ZM515.686 165.6V280H479.806L435.166 188.2V280H410.926V165.6H449.166L491.446 251.96V165.6H515.686ZM574.148 163.24C603.508 163.24 621.788 177.76 621.788 201.68H597.548C597.548 190.68 588.068 183.8 573.828 183.8C561.908 183.8 550.748 188.56 550.748 198.2C550.748 207.32 559.708 208.8 576.468 211.28L581.148 211.96C600.268 214.8 625.628 218.56 625.628 245.72C625.628 269.76 605.788 282.4 575.188 282.4C542.228 282.4 523.827 267.72 523.827 242.88H548.068C548.068 254.76 558.348 261.84 575.028 261.84C589.228 261.84 600.588 256.68 600.588 246.24C600.588 236.24 591.348 234.84 575.668 232.64L569.628 231.76C550.788 229.12 525.668 225.68 525.668 199.64C525.668 175.88 546.708 163.24 574.148 163.24ZM723.828 165.6V187.12H688.308V280H663.028V187.12H627.507V165.6H723.828ZM755.894 165.6V280H730.614V165.6H755.894ZM859.14 165.6V187.12H823.62V280H798.34V187.12H762.82V165.6H859.14ZM865.926 233.6V165.6H891.206V231.84C891.206 251.32 899.966 260.72 915.846 260.72C931.686 260.72 940.486 251.32 940.486 231.84V165.6H965.766V233.6C965.766 264.4 945.446 282.4 915.846 282.4C886.206 282.4 865.926 264.4 865.926 233.6ZM1068.98 165.6V187.12H1033.46V280H1008.18V187.12H972.664V165.6H1068.98ZM1075.77 165.6H1154.81V187.12H1101.05V212.68H1150.17V233.08H1101.05V258.48H1156.25V280H1075.77V165.6Z" fill="#8A4132"/>
<path d="M236.934 0H53.1359C23.7898 0 0 23.7898 0 53.1359V236.934C0 266.28 23.7898 290.07 53.1359 290.07H236.934C266.28 290.07 290.07 266.28 290.07 236.934V53.1359C290.07 23.7898 266.28 0 236.934 0Z" fill="#8A4132"/>
<path d="M103.183 95.3441C103.183 95.3441 100.807 101.125 100.728 101.6C99.7777 105.955 99.936 111.895 102.866 115.458C103.262 116.012 103.816 116.408 104.291 116.884C108.884 120.922 113.557 124.882 117.912 129.316C120.367 131.85 123.059 134.384 124.801 137.473C125.673 138.977 126.306 140.561 126.86 142.224C127.415 143.887 127.494 146.5 128.207 148.005C128.207 148.005 130.107 145.154 130.266 144.917C133.196 140.799 133.829 135.493 133.354 130.583C132.72 124.486 127.969 119.893 123.851 115.775C116.962 108.965 110.151 102.154 103.341 95.2649L103.183 95.3441Z" fill="white"/>
<path d="M110.707 38.2481C110.707 38.8024 108.094 41.574 107.619 42.2075C106.669 43.7121 105.798 45.2959 105.085 46.9589C103.58 50.364 102.709 54.0859 102.472 57.8078C101.997 65.4892 104.214 73.4081 108.886 79.5057C114.904 87.2662 122.111 93.8389 128.763 101.124C136.365 109.518 145.63 116.645 145.947 128.999C146.105 135.413 144.68 141.748 143.175 148.004C146.026 148.004 148.481 148.321 151.331 147.767C154.024 147.212 156.637 146.341 159.171 145.312C164.319 143.095 169.07 139.927 173.188 136.047C189.738 120.209 193.698 97.64 186.412 76.3381C181.978 63.5886 174.455 52.1062 166.457 41.2573C157.667 29.3789 147.847 17.2629 145.471 2.69214C140.879 9.10646 137.79 17.1046 139.057 24.8651C140.403 33.5759 146.739 39.9902 152.44 46.2462C158.854 53.294 164.873 61.5297 169.228 70.003C175.643 82.4357 176.91 96.0562 171.921 109.202C170.02 114.349 166.932 120.13 162.497 123.614C160.517 118.942 158.775 114.111 156.004 109.914C153.39 106.034 150.223 102.391 146.976 98.9862C140.245 92.0175 132.88 85.6824 126.862 78.0802C117.834 66.7562 112.212 52.7397 110.866 38.3273L110.707 38.2481Z" fill="white"/>
<path d="M60.1035 162.021V176.592H229.964V161.705L60.1035 162.021Z" fill="white"/>
<path d="M84.8131 190.608H102.947C106.907 190.608 111.025 190.133 114.826 190.925C119.577 191.954 124.17 194.092 127.892 197.26C131.614 200.348 134.544 204.466 136.365 208.98C138.424 214.286 138.266 219.512 138.266 225.055C138.266 237.963 138.266 250.871 138.266 263.779C138.266 272.569 138.266 281.359 138.266 290.07H124.804C124.804 290.07 124.804 232.341 124.804 227.51V224.422C124.804 219.275 123.774 214.523 120.211 210.643C117.36 207.475 113.004 204.783 108.728 204.229C105.798 203.833 102.631 204.229 99.7006 204.229H84.7339V190.608H84.8131Z" fill="white"/>
<path d="M205.257 190.608C199.238 190.608 193.22 190.608 187.122 190.608C183.163 190.608 179.045 190.133 175.244 190.925C170.493 191.954 165.9 194.092 162.178 197.26C158.456 200.348 155.526 204.466 153.705 208.98C151.646 214.286 151.804 219.512 151.804 225.055C151.804 237.963 151.804 250.871 151.804 263.779C151.804 272.569 151.804 281.359 151.804 290.07H165.266C165.266 290.07 165.266 232.341 165.266 227.51V224.422C165.266 219.275 166.296 214.523 169.859 210.643C172.71 207.475 177.065 204.783 181.342 204.229C184.272 203.833 187.439 204.229 190.369 204.229H205.336V190.608H205.257Z" fill="white"/>
</svg>
