<svg id="BeBold" viewBox="0 0 14 14" xmlns="http://www.w3.org/2000/svg"><g id="Align-right-1" fill="rgb(0,0,0)"><path d="m4.005 1.209h8.985a1.01 1.01 0 0 1 1.01 1.011v.4a1.009 1.009 0 0 1 -1.009 1.009h-8.986a1.01 1.01 0 0 1 -1.01-1.01v-.4a1.01 1.01 0 0 1 1.01-1.01z"/><path d="m1.01 5.79h11.98a1.015 1.015 0 0 1 1.01 1v.41a1.011 1.011 0 0 1 -1.01 1.01h-11.98a1.011 1.011 0 0 1 -1.01-1.01v-.408a1.015 1.015 0 0 1 1.01-1.002z"/><path d="m7.505 10.372h5.485a1.01 1.01 0 0 1 1.01 1.01v.4a1.009 1.009 0 0 1 -1.009 1.009h-5.491a1.009 1.009 0 0 1 -1.009-1.009v-.4a1.01 1.01 0 0 1 1.014-1.01z"/></g></svg>