<svg id="Layer_1" enable-background="new 0 0 32 32" viewBox="0 0 32 32" xmlns="http://www.w3.org/2000/svg" width="300" height="300" version="1.1" xmlns:xlink="http://www.w3.org/1999/xlink" xmlns:svgjs="http://svgjs.dev/svgjs"><g width="100%" height="100%" transform="matrix(-1,0,0,-1,32.09999656677246,32)"><g><g><path d="m16 8h-8.7c-.5 0-.8-.3-.8-.7s.3-.8.8-.8h8.7c.4 0 .8.3.8.8s-.4.7-.8.7z" fill="#000000" fill-opacity="1" data-original-color="#1b75bcff" stroke="none" stroke-opacity="1"/></g><g><path d="m24.8 25.5h-17.5c-.4 0-.8-.3-.8-.8s.3-.7.8-.7h17.5c.4 0 .8.3.8.8s-.4.7-.8.7z" fill="#000000" fill-opacity="1" data-original-color="#1b75bcff" stroke="none" stroke-opacity="1"/></g><g><path d="m20.8 16.6h-13.5c-.4 0-.8-.3-.8-.8s.3-.8.8-.8h13.5c.4 0 .8.3.8.8s-.4.8-.8.8z" fill="#000000" fill-opacity="1" data-original-color="#1b75bcff" stroke="none" stroke-opacity="1"/></g></g></g></svg>