<svg id="Layer_2_00000176727024185689804590000002424053196476387762_" enable-background="new 0 0 512 512" height="300" viewBox="0 0 512 512" width="300" xmlns="http://www.w3.org/2000/svg" version="1.1" xmlns:xlink="http://www.w3.org/1999/xlink" xmlns:svgjs="http://svgjs.dev/svgjs"><g width="100%" height="100%" transform="matrix(1,0,0,-1,0,512)"><g id="Icon"><g id="_60"><path d="m406 371h-300c-13.8 0-25-11.2-25-25 0-13.8 11.2-25 25-25h300c13.8 0 25 11.2 25 25 0 13.8-11.2 25-25 25zm0-140h-200c-13.8 0-25 11.2-25 25 0 13.8 11.2 25 25 25h200c13.8 0 25-11.2 25-25 0-13.8-11.2-25-25-25zm0-90h-100c-13.8 0-25 11.2-25 25 0 13.8 11.2 25 25 25h100c13.8 0 25-11.2 25-25 0-13.8-11.2-25-25-25z" fill="#000000" fill-opacity="1" data-original-color="#64b5f6ff" stroke="none" stroke-opacity="1"/></g></g></g></svg>