<svg viewBox="0 0 24 24" xmlns="http://www.w3.org/2000/svg" width="300" height="300" version="1.1" xmlns:xlink="http://www.w3.org/1999/xlink" xmlns:svgjs="http://svgjs.dev/svgjs"><g width="100%" height="100%" transform="matrix(-1,0,0,1,24,0)"><g id="List"><path d="m21 4.5h-18a1.5 1.5 0 0 0 0 3h18a1.5 1.5 0 0 0 0-3z" fill="#000000" fill-opacity="1" data-original-color="#000000ff" stroke="none" stroke-opacity="1"/><path d="m18 10.5h-15a1.5 1.5 0 0 0 0 3h15a1.5 1.5 0 0 0 0-3z" fill="#000000" fill-opacity="1" data-original-color="#000000ff" stroke="none" stroke-opacity="1"/><path d="m12 16.5h-9a1.5 1.5 0 0 0 0 3h9a1.5 1.5 0 0 0 0-3z" fill="#000000" fill-opacity="1" data-original-color="#000000ff" stroke="none" stroke-opacity="1"/></g></g></svg>