<svg width="61" height="37" viewBox="0 0 61 37" fill="none" xmlns="http://www.w3.org/2000/svg">
<mask id="path-1-outside-1_434_358" maskUnits="userSpaceOnUse" x="-7" y="-7" width="75" height="51" fill="black">
<rect fill="white" x="-7" y="-7" width="75" height="51"/>
<path d="M60.3975 13.63C59.5308 13.4567 58.4041 13.3267 57.0175 13.24C55.6308 13.0667 54.1575 12.98 52.5975 12.98C49.9108 12.98 47.3108 13.24 44.7975 13.76C42.3708 14.1933 41.1575 15.1033 41.1575 16.49C41.1575 17.53 41.7641 18.1367 42.9775 18.31C44.2775 18.4833 46.4441 18.57 49.4775 18.57C53.2908 18.57 56.0641 19.35 57.7975 20.91C59.5308 22.3833 60.3975 24.55 60.3975 27.41C60.3975 30.27 59.2275 32.4367 56.8875 33.91C54.6341 35.3833 51.4275 36.12 47.2675 36.12C42.2408 36.12 38.6441 34.7333 36.4775 31.96C34.3975 29.1 33.3575 25.6767 33.3575 21.69C33.3575 15.0167 35.5675 9.81666 39.9875 6.09C44.4075 2.36333 51.2108 0.499992 60.3975 0.499992V13.63ZM27.6375 13.63C26.7708 13.4567 25.6441 13.3267 24.2575 13.24C22.8708 13.0667 21.3975 12.98 19.8375 12.98C17.1508 12.98 14.5508 13.24 12.0375 13.76C9.61079 14.1933 8.39746 15.1033 8.39746 16.49C8.39746 17.53 9.00413 18.1367 10.2175 18.31C11.5175 18.4833 13.6841 18.57 16.7175 18.57C20.5308 18.57 23.3041 19.35 25.0375 20.91C26.7708 22.3833 27.6375 24.55 27.6375 27.41C27.6375 30.27 26.4675 32.4367 24.1275 33.91C21.8741 35.3833 18.6675 36.12 14.5075 36.12C9.48079 36.12 5.88413 34.7333 3.71746 31.96C1.63746 29.1 0.597461 25.6767 0.597461 21.69C0.597461 15.0167 2.80746 9.81666 7.22746 6.09C11.6475 2.36333 18.4508 0.499992 27.6375 0.499992V13.63Z"/>
</mask>
<path d="M60.3975 13.63C59.5308 13.4567 58.4041 13.3267 57.0175 13.24C55.6308 13.0667 54.1575 12.98 52.5975 12.98C49.9108 12.98 47.3108 13.24 44.7975 13.76C42.3708 14.1933 41.1575 15.1033 41.1575 16.49C41.1575 17.53 41.7641 18.1367 42.9775 18.31C44.2775 18.4833 46.4441 18.57 49.4775 18.57C53.2908 18.57 56.0641 19.35 57.7975 20.91C59.5308 22.3833 60.3975 24.55 60.3975 27.41C60.3975 30.27 59.2275 32.4367 56.8875 33.91C54.6341 35.3833 51.4275 36.12 47.2675 36.12C42.2408 36.12 38.6441 34.7333 36.4775 31.96C34.3975 29.1 33.3575 25.6767 33.3575 21.69C33.3575 15.0167 35.5675 9.81666 39.9875 6.09C44.4075 2.36333 51.2108 0.499992 60.3975 0.499992V13.63ZM27.6375 13.63C26.7708 13.4567 25.6441 13.3267 24.2575 13.24C22.8708 13.0667 21.3975 12.98 19.8375 12.98C17.1508 12.98 14.5508 13.24 12.0375 13.76C9.61079 14.1933 8.39746 15.1033 8.39746 16.49C8.39746 17.53 9.00413 18.1367 10.2175 18.31C11.5175 18.4833 13.6841 18.57 16.7175 18.57C20.5308 18.57 23.3041 19.35 25.0375 20.91C26.7708 22.3833 27.6375 24.55 27.6375 27.41C27.6375 30.27 26.4675 32.4367 24.1275 33.91C21.8741 35.3833 18.6675 36.12 14.5075 36.12C9.48079 36.12 5.88413 34.7333 3.71746 31.96C1.63746 29.1 0.597461 25.6767 0.597461 21.69C0.597461 15.0167 2.80746 9.81666 7.22746 6.09C11.6475 2.36333 18.4508 0.499992 27.6375 0.499992V13.63Z" fill="#8A4132"/>
<path d="M60.3975 13.63L59.0247 20.4941L67.3975 22.1686V13.63H60.3975ZM57.0175 13.24L56.1492 20.1859L56.3644 20.2128L56.5808 20.2264L57.0175 13.24ZM44.7975 13.76L46.028 20.651L46.1221 20.6342L46.2157 20.6148L44.7975 13.76ZM42.9775 18.31L41.9875 25.2396L42.0199 25.2443L42.0523 25.2486L42.9775 18.31ZM57.7975 20.91L53.1147 26.1131L53.1884 26.1794L53.2639 26.2436L57.7975 20.91ZM56.8875 33.91L53.1578 27.9864L53.107 28.0184L53.0567 28.0512L56.8875 33.91ZM36.4775 31.96L30.8163 36.0772L30.8871 36.1746L30.9613 36.2695L36.4775 31.96ZM39.9875 6.09L44.4996 11.4417L44.4996 11.4417L39.9875 6.09ZM60.3975 0.499992H67.3975V-6.50001H60.3975V0.499992ZM27.6375 13.63L26.2647 20.4941L34.6375 22.1686V13.63H27.6375ZM24.2575 13.24L23.3892 20.1859L23.6044 20.2128L23.8208 20.2264L24.2575 13.24ZM12.0375 13.76L13.268 20.651L13.3621 20.6342L13.4557 20.6148L12.0375 13.76ZM10.2175 18.31L9.22753 25.2396L9.25989 25.2443L9.2923 25.2486L10.2175 18.31ZM25.0375 20.91L20.3547 26.1131L20.4284 26.1794L20.5039 26.2436L25.0375 20.91ZM24.1275 33.91L20.3978 27.9864L20.347 28.0184L20.2967 28.0512L24.1275 33.91ZM3.71746 31.96L-1.94369 36.0772L-1.87285 36.1746L-1.79871 36.2695L3.71746 31.96ZM7.22746 6.09L11.7396 11.4417L11.7396 11.4417L7.22746 6.09ZM27.6375 0.499992H34.6375V-6.50001H27.6375V0.499992ZM61.7703 6.76593C60.4721 6.5063 58.9993 6.3502 57.4541 6.25363L56.5808 20.2264C57.809 20.3031 58.5895 20.407 59.0247 20.4941L61.7703 6.76593ZM57.8857 6.29406C56.1802 6.08086 54.4148 5.98 52.5975 5.98V19.98C53.9001 19.98 55.0814 20.0525 56.1492 20.1859L57.8857 6.29406ZM52.5975 5.98C49.4565 5.98 46.3804 6.28424 43.3792 6.90518L46.2157 20.6148C48.2412 20.1957 50.365 19.98 52.5975 19.98V5.98ZM43.5669 6.86901C41.8739 7.17133 39.7317 7.76932 37.8675 9.1675C35.6892 10.8012 34.1575 13.365 34.1575 16.49H48.1575C48.1575 17.2037 47.9909 18.0207 47.5743 18.8092C47.1685 19.5774 46.6532 20.0782 46.2675 20.3675C45.6166 20.8557 45.2943 20.782 46.028 20.651L43.5669 6.86901ZM34.1575 16.49C34.1575 18.4462 34.7766 20.7887 36.6627 22.6747C38.4095 24.4216 40.5038 25.0277 41.9875 25.2396L43.9674 11.3803C44.2378 11.419 45.4221 11.6351 46.5622 12.7752C47.8416 14.0547 48.1575 15.5738 48.1575 16.49H34.1575ZM42.0523 25.2486C43.8545 25.4889 46.4294 25.57 49.4775 25.57V11.57C46.4589 11.57 44.7004 11.4778 43.9026 11.3714L42.0523 25.2486ZM49.4775 25.57C50.937 25.57 51.9145 25.7226 52.5222 25.8936C53.1128 26.0597 53.2129 26.2014 53.1147 26.1131L62.4802 15.7069C58.8594 12.4482 53.9885 11.57 49.4775 11.57V25.57ZM53.2639 26.2436C53.2668 26.246 53.2537 26.2344 53.2388 26.2137C53.2245 26.1936 53.2304 26.1955 53.2481 26.2397C53.2853 26.3327 53.3975 26.6756 53.3975 27.41H67.3975C67.3975 23.0683 66.0178 18.7102 62.331 15.5764L53.2639 26.2436ZM53.3975 27.41C53.3975 27.6477 53.3732 27.7826 53.3603 27.8381C53.3484 27.8891 53.3434 27.8858 53.3606 27.854C53.3783 27.8212 53.3935 27.8064 53.3842 27.816C53.372 27.8287 53.3092 27.891 53.1578 27.9864L60.6172 39.8336C65.0758 37.0263 67.3975 32.5752 67.3975 27.41H53.3975ZM53.0567 28.0512C52.4058 28.4768 50.7533 29.12 47.2675 29.12V43.12C52.1016 43.12 56.8625 42.2898 60.7182 39.7688L53.0567 28.0512ZM47.2675 29.12C43.4272 29.12 42.334 28.0861 41.9936 27.6505L30.9613 36.2695C34.9543 41.3805 41.0544 43.12 47.2675 43.12V29.12ZM42.1386 27.8428C41.0377 26.3291 40.3575 24.394 40.3575 21.69H26.3575C26.3575 26.9594 27.7572 31.8709 30.8163 36.0772L42.1386 27.8428ZM40.3575 21.69C40.3575 16.7253 41.9096 13.6254 44.4996 11.4417L35.4753 0.738342C29.2253 6.00789 26.3575 13.308 26.3575 21.69H40.3575ZM44.4996 11.4417C47.0994 9.24973 51.9458 7.49999 60.3975 7.49999V-6.50001C50.4758 -6.50001 41.7156 -4.52308 35.4753 0.738342L44.4996 11.4417ZM53.3975 0.499992V13.63H67.3975V0.499992H53.3975ZM29.0103 6.76593C27.7121 6.5063 26.2393 6.3502 24.6941 6.25363L23.8208 20.2264C25.049 20.3031 25.8295 20.407 26.2647 20.4941L29.0103 6.76593ZM25.1257 6.29406C23.4202 6.08086 21.6548 5.98 19.8375 5.98V19.98C21.1401 19.98 22.3214 20.0525 23.3892 20.1859L25.1257 6.29406ZM19.8375 5.98C16.6965 5.98 13.6204 6.28424 10.6192 6.90518L13.4557 20.6148C15.4812 20.1957 17.605 19.98 19.8375 19.98V5.98ZM10.8069 6.86901C9.11391 7.17133 6.9717 7.76932 5.10747 9.1675C2.92919 10.8012 1.39746 13.365 1.39746 16.49H15.3975C15.3975 17.2037 15.2309 18.0207 14.8143 18.8092C14.4085 19.5774 13.8932 20.0782 13.5075 20.3675C12.8566 20.8557 12.5343 20.782 13.268 20.651L10.8069 6.86901ZM1.39746 16.49C1.39746 18.4462 2.01664 20.7887 3.90271 22.6747C5.64953 24.4216 7.74382 25.0277 9.22753 25.2396L11.2074 11.3803C11.4778 11.419 12.6621 11.6351 13.8022 12.7752C15.0816 14.0547 15.3975 15.5738 15.3975 16.49H1.39746ZM9.2923 25.2486C11.0945 25.4889 13.6694 25.57 16.7175 25.57V11.57C13.6989 11.57 11.9404 11.4778 11.1426 11.3714L9.2923 25.2486ZM16.7175 25.57C18.177 25.57 19.1545 25.7226 19.7622 25.8936C20.3528 26.0597 20.4529 26.2014 20.3547 26.1131L29.7202 15.7069C26.0994 12.4482 21.2285 11.57 16.7175 11.57V25.57ZM20.5039 26.2436C20.5068 26.246 20.4937 26.2344 20.4788 26.2137C20.4645 26.1936 20.4704 26.1955 20.4881 26.2397C20.5253 26.3327 20.6375 26.6756 20.6375 27.41H34.6375C34.6375 23.0683 33.2578 18.7102 29.571 15.5764L20.5039 26.2436ZM20.6375 27.41C20.6375 27.6477 20.6132 27.7826 20.6003 27.8381C20.5885 27.8891 20.5834 27.8858 20.6006 27.854C20.6183 27.8212 20.6335 27.8064 20.6242 27.816C20.612 27.8287 20.5492 27.891 20.3978 27.9864L27.8572 39.8336C32.3158 37.0263 34.6375 32.5752 34.6375 27.41H20.6375ZM20.2967 28.0512C19.6458 28.4768 17.9933 29.12 14.5075 29.12V43.12C19.3416 43.12 24.1025 42.2898 27.9582 39.7688L20.2967 28.0512ZM14.5075 29.12C10.6672 29.12 9.57398 28.0861 9.23363 27.6505L-1.79871 36.2695C2.19428 41.3805 8.29436 43.12 14.5075 43.12V29.12ZM9.37861 27.8428C8.27773 26.3291 7.59746 24.394 7.59746 21.69H-6.40254C-6.40254 26.9594 -5.0028 31.8709 -1.94369 36.0772L9.37861 27.8428ZM7.59746 21.69C7.59746 16.7253 9.14958 13.6254 11.7396 11.4417L2.71528 0.738342C-3.53466 6.00789 -6.40254 13.308 -6.40254 21.69H7.59746ZM11.7396 11.4417C14.3394 9.24973 19.1858 7.49999 27.6375 7.49999V-6.50001C17.7158 -6.50001 8.95556 -4.52308 2.71528 0.738342L11.7396 11.4417ZM20.6375 0.499992V13.63H34.6375V0.499992H20.6375Z" fill="" mask="url(#path-1-outside-1_434_358)"/>
</svg>
