<svg width="451" height="748" viewBox="0 0 451 748" fill="none" xmlns="http://www.w3.org/2000/svg">
<path fill-rule="evenodd" clip-rule="evenodd" d="M12.8352 471.122C12.8352 471.122 -27.3247 546.898 34.4306 599.969C96.1812 653.035 139.626 697.979 142.451 747.371C142.451 747.371 190.373 662.238 147.48 617.174C104.582 572.11 24.1324 495.287 12.8352 471.122Z" fill="#8A4132"/>
<path fill-rule="evenodd" clip-rule="evenodd" d="M56.7892 191.169C56.7892 191.169 -62.317 295.049 66.9096 432.033C196.141 569.012 276.898 616.919 216.247 745.992C216.247 745.992 331.765 743.072 400.572 631.262C469.379 519.452 473.159 401.172 378.227 271.643C283.296 142.109 222.199 64.9687 226.757 0C226.757 0 146.206 73.2495 240.528 206.079C334.849 338.908 455.19 462.778 309.334 628.087C309.334 628.087 291.375 549.247 172.682 435.477C53.9889 321.712 57.1494 276.177 56.7892 191.169Z" fill="#8A4132"/>
</svg>
