<svg width="41" height="49" viewBox="0 0 41 49" fill="none" xmlns="http://www.w3.org/2000/svg">
<g id="Asset 16" clip-path="url(#clip0_427_626)">
<g id="objects">
<path id="Vector" d="M29.0413 35.4836V14.3638C29.0413 14.3638 31.4491 18.3329 40.1519 18.5753C40.6161 18.5882 41 18.2106 41 17.7515V11.7828C41 11.3387 40.6421 10.9869 40.1931 10.9611C33.4426 10.5835 30.2365 5.46232 29.922 0.765927C29.8938 0.3304 29.5076 0 29.0673 0H22.1844C21.7267 0 21.3536 0.366872 21.3536 0.821708V34.3959C21.3536 38.0432 18.5358 41.2163 14.8525 41.3879C10.6421 41.5853 7.21913 38.011 7.73974 33.7866C8.10851 30.8023 10.5293 28.3586 13.5402 27.9445C14.1389 27.863 14.7224 27.8566 15.2886 27.9188C15.7896 27.9746 16.23 27.6055 16.23 27.1078V21.1241C16.23 20.6993 15.9024 20.3303 15.4729 20.3046C14.6096 20.2488 13.7246 20.2681 12.8265 20.3689C6.1866 21.1155 0.826509 26.4298 0.0911513 32.9992C-0.87848 41.6647 5.95449 49 14.5207 49C22.5402 49 29.0413 42.5701 29.0413 34.6383" fill="#FFD5AF"/>
</g>
</g>
<defs>
<clipPath id="clip0_427_626">
<rect width="41" height="49" fill="white"/>
</clipPath>
</defs>
</svg>
